<svg xmlns="http://www.w3.org/2000/svg" xmlns:xlink="http://www.w3.org/1999/xlink" width="2810.64" height="2800" viewBox="0 0 2810.64 2800">
  <defs>
    <style>
      .cls-1 {
        isolation: isolate;
      }

      .cls-2 {
        opacity: 0.3;
        fill: url(#linear-gradient);
      }

      .cls-3, .cls-46 {
        opacity: 0.6;
      }

      .cls-4 {
        fill: url(#linear-gradient-2);
      }

      .cls-5 {
        fill: url(#New_Gradient_Swatch_6);
      }

      .cls-6 {
        fill: url(#New_Gradient_Swatch_20);
      }

      .cls-7 {
        fill: url(#New_Gradient_Swatch_20-2);
      }

      .cls-8 {
        fill: url(#New_Gradient_Swatch_6-2);
      }

      .cls-9 {
        fill: url(#New_Gradient_Swatch_20-3);
      }

      .cls-10 {
        fill: url(#New_Gradient_Swatch_20-4);
      }

      .cls-11 {
        fill: url(#New_Gradient_Swatch_8);
      }

      .cls-12, .cls-18, .cls-23, .cls-28, .cls-42 {
        fill: #fff;
      }

      .cls-12 {
        mix-blend-mode: soft-light;
      }

      .cls-13 {
        fill: url(#New_Gradient_Swatch_8-2);
      }

      .cls-14 {
        fill: url(#linear-gradient-3);
      }

      .cls-15 {
        fill: url(#linear-gradient-4);
      }

      .cls-16 {
        fill: url(#linear-gradient-5);
      }

      .cls-17 {
        fill: url(#linear-gradient-6);
      }

      .cls-18 {
        opacity: 0.34;
      }

      .cls-19 {
        opacity: 0.68;
      }

      .cls-20 {
        fill: url(#linear-gradient-7);
      }

      .cls-21 {
        fill: url(#linear-gradient-8);
      }

      .cls-22 {
        fill: url(#linear-gradient-9);
      }

      .cls-23 {
        opacity: 0.4;
      }

      .cls-24 {
        fill: url(#linear-gradient-10);
      }

      .cls-25 {
        fill: url(#linear-gradient-11);
      }

      .cls-26 {
        fill: url(#linear-gradient-12);
      }

      .cls-27 {
        fill: url(#linear-gradient-13);
      }

      .cls-28 {
        opacity: 0.5;
      }

      .cls-29 {
        fill: url(#linear-gradient-14);
      }

      .cls-30 {
        fill: url(#New_Gradient_Swatch_1);
      }

      .cls-31 {
        fill: url(#New_Gradient_Swatch_1-2);
      }

      .cls-32 {
        fill: url(#linear-gradient-15);
      }

      .cls-33 {
        fill: url(#New_Gradient_Swatch_1-3);
      }

      .cls-34 {
        fill: url(#linear-gradient-16);
      }

      .cls-35 {
        fill: url(#New_Gradient_Swatch_19);
      }

      .cls-36 {
        fill: url(#linear-gradient-17);
      }

      .cls-37 {
        fill: url(#linear-gradient-18);
      }

      .cls-38 {
        fill: url(#linear-gradient-19);
      }

      .cls-39 {
        fill: url(#New_Gradient_Swatch_1-4);
      }

      .cls-40 {
        fill: url(#linear-gradient-20);
      }

      .cls-41 {
        fill: url(#New_Gradient_Swatch_19-2);
      }

      .cls-42 {
        opacity: 0.93;
      }

      .cls-43 {
        fill: url(#linear-gradient-21);
      }

      .cls-44 {
        fill: url(#linear-gradient-22);
      }

      .cls-45 {
        fill: url(#linear-gradient-23);
      }

      .cls-46 {
        fill: url(#linear-gradient-24);
      }
    </style>
    <linearGradient id="linear-gradient" x1="3394.12" y1="3577.41" x2="1372.74" y2="1395.6" gradientUnits="userSpaceOnUse">
      <stop offset="0" stop-color="#b37cff"/>
      <stop offset="1" stop-color="#f895e7"/>
    </linearGradient>
    <linearGradient id="linear-gradient-2" x1="1512.6" y1="706.44" x2="3015.63" y2="506.7" gradientUnits="userSpaceOnUse">
      <stop offset="0" stop-color="#a737d5"/>
      <stop offset="1" stop-color="#ef497a"/>
    </linearGradient>
    <linearGradient id="New_Gradient_Swatch_6" data-name="New Gradient Swatch 6" x1="1200.32" y1="678.55" x2="1224.62" y2="1353.9" gradientUnits="userSpaceOnUse">
      <stop offset="0" stop-color="#52f0c0"/>
      <stop offset="1" stop-color="#9f71fb"/>
    </linearGradient>
    <linearGradient id="New_Gradient_Swatch_20" data-name="New Gradient Swatch 20" x1="1444.12" y1="1092.49" x2="1113" y2="668.05" xlink:href="#linear-gradient-2"/>
    <linearGradient id="New_Gradient_Swatch_20-2" data-name="New Gradient Swatch 20" x1="1379.09" y1="1104.49" x2="1057.07" y2="691.72" xlink:href="#linear-gradient-2"/>
    <linearGradient id="New_Gradient_Swatch_6-2" x1="1355.51" y1="701.88" x2="1379.79" y2="1376.82" xlink:href="#New_Gradient_Swatch_6"/>
    <linearGradient id="New_Gradient_Swatch_20-3" data-name="New Gradient Swatch 20" x1="1609.72" y1="1125.16" x2="1262.67" y2="680.3" xlink:href="#linear-gradient-2"/>
    <linearGradient id="New_Gradient_Swatch_20-4" data-name="New Gradient Swatch 20" x1="1561.18" y1="1169.24" x2="1184.1" y2="685.89" xlink:href="#linear-gradient-2"/>
    <linearGradient id="New_Gradient_Swatch_8" data-name="New Gradient Swatch 8" x1="737.83" y1="1103.35" x2="756.7" y2="1527.93" gradientUnits="userSpaceOnUse">
      <stop offset="0" stop-color="#5ab6ff"/>
      <stop offset="1" stop-color="#2f68e3"/>
    </linearGradient>
    <linearGradient id="New_Gradient_Swatch_8-2" x1="930.4" y1="1198.88" x2="942.43" y2="1692.21" xlink:href="#New_Gradient_Swatch_8"/>
    <linearGradient id="linear-gradient-3" x1="2542.74" y1="2955.17" x2="-2312.41" y2="-2578.56" gradientTransform="translate(3746.76 214.36) rotate(87.49)" gradientUnits="userSpaceOnUse">
      <stop offset="0" stop-color="#53d8ff"/>
      <stop offset="1" stop-color="#3840f7"/>
    </linearGradient>
    <linearGradient id="linear-gradient-4" x1="1739.06" y1="2889.24" x2="1066.37" y2="1193.4" gradientTransform="matrix(1, 0, 0, 1, 0, 0)" xlink:href="#linear-gradient-3"/>
    <linearGradient id="linear-gradient-5" x1="2355.94" y1="2636.73" x2="1689.19" y2="955.86" gradientTransform="matrix(1, 0, 0, 1, 0, 0)" xlink:href="#linear-gradient-3"/>
    <linearGradient id="linear-gradient-6" x1="2235.95" y1="3098.39" x2="3072.61" y2="799.48" gradientTransform="matrix(1, 0, 0, 1, 0, 0)" xlink:href="#linear-gradient-3"/>
    <linearGradient id="linear-gradient-7" x1="2577.59" y1="1277.08" x2="2692.02" y2="2824.85" gradientUnits="userSpaceOnUse">
      <stop offset="0" stop-color="#cb236d"/>
      <stop offset="1" stop-color="#4c246d"/>
    </linearGradient>
    <linearGradient id="linear-gradient-8" x1="2520.6" y1="1241.04" x2="2767.35" y2="1241.04" gradientUnits="userSpaceOnUse">
      <stop offset="0" stop-color="#2b3582"/>
      <stop offset="1" stop-color="#150e42"/>
    </linearGradient>
    <linearGradient id="linear-gradient-9" x1="2477.31" y1="2762.49" x2="2810.64" y2="2762.49" xlink:href="#linear-gradient-8"/>
    <linearGradient id="linear-gradient-10" x1="2207.92" y1="1277.08" x2="2322.35" y2="2824.85" xlink:href="#linear-gradient-7"/>
    <linearGradient id="linear-gradient-11" x1="2150.93" y1="1241.04" x2="2397.68" y2="1241.04" xlink:href="#linear-gradient-8"/>
    <linearGradient id="linear-gradient-12" x1="2107.64" y1="2762.49" x2="2440.97" y2="2762.49" xlink:href="#linear-gradient-8"/>
    <linearGradient id="linear-gradient-13" x1="2245.94" y1="3261.23" x2="2972.71" y2="2214.93" xlink:href="#linear-gradient-2"/>
    <linearGradient id="linear-gradient-14" x1="-788.77" y1="4426.09" x2="-764.42" y2="4309.19" gradientTransform="matrix(0.95, 0.89, 0.68, -0.73, -2105.72, 7139.35)" gradientUnits="userSpaceOnUse">
      <stop offset="0" stop-color="#f9b776"/>
      <stop offset="1" stop-color="#f47960"/>
    </linearGradient>
    <linearGradient id="New_Gradient_Swatch_1" data-name="New Gradient Swatch 1" x1="-5816.34" y1="1991.73" x2="-5769.39" y2="1886.08" gradientTransform="matrix(-1, 0, 0, 1, -5185.28, 0)" xlink:href="#linear-gradient-8"/>
    <linearGradient id="New_Gradient_Swatch_1-2" data-name="New Gradient Swatch 1" x1="-5771.29" y1="3216.99" x2="-5683.31" y2="3216.99" gradientTransform="matrix(-1, 0, 0, 1, -5085.82, 0)" xlink:href="#linear-gradient-8"/>
    <linearGradient id="linear-gradient-15" x1="-6100.73" y1="3070.95" x2="-6092.65" y2="3378.07" gradientTransform="matrix(-1, 0, 0, 1, -5085.82, 0)" xlink:href="#linear-gradient-14"/>
    <linearGradient id="New_Gradient_Swatch_1-3" data-name="New Gradient Swatch 1" x1="-6180.03" y1="3200.93" x2="-6037.67" y2="3200.93" gradientTransform="matrix(-1, 0, 0, 1, -5085.82, 0)" xlink:href="#linear-gradient-8"/>
    <linearGradient id="linear-gradient-16" x1="-5833.48" y1="3063.92" x2="-5825.39" y2="3371.03" gradientTransform="matrix(-1, 0, 0, 1, -5085.82, 0)" xlink:href="#linear-gradient-14"/>
    <linearGradient id="New_Gradient_Swatch_19" data-name="New Gradient Swatch 19" x1="889" y1="2571.3" x2="1045.52" y2="3455.61" gradientUnits="userSpaceOnUse">
      <stop offset="0" stop-color="#fdf53f"/>
      <stop offset="1" stop-color="#d93c65"/>
    </linearGradient>
    <linearGradient id="linear-gradient-17" x1="728.61" y1="1882.83" x2="885.13" y2="2767.14" xlink:href="#linear-gradient-7"/>
    <linearGradient id="linear-gradient-18" x1="774.11" y1="2002.97" x2="756.02" y2="1858.26" gradientTransform="matrix(1, 0, 0, 1, 0, 0)" xlink:href="#linear-gradient-14"/>
    <linearGradient id="linear-gradient-19" x1="-6090.2" y1="2388.84" x2="-5881.13" y2="2016.76" gradientTransform="matrix(-0.99, 0.13, 0.13, 0.99, -5513.9, 355.95)" xlink:href="#linear-gradient-14"/>
    <linearGradient id="New_Gradient_Swatch_1-4" data-name="New Gradient Swatch 1" x1="-6028.95" y1="2316.43" x2="-5982" y2="2210.79" gradientTransform="matrix(-0.99, 0.13, 0.13, 0.99, -5513.9, 355.95)" xlink:href="#linear-gradient-8"/>
    <linearGradient id="linear-gradient-20" x1="607.53" y1="2029.8" x2="461.71" y2="1723.15" gradientTransform="matrix(1, 0, 0, 1, 0, 0)" xlink:href="#linear-gradient-14"/>
    <linearGradient id="New_Gradient_Swatch_19-2" x1="874.05" y1="2014.58" x2="2143.35" y2="50.97" xlink:href="#New_Gradient_Swatch_19"/>
    <linearGradient id="linear-gradient-21" x1="1844.66" y1="1264.81" x2="1185.61" y2="2473.07" xlink:href="#linear-gradient-7"/>
    <linearGradient id="linear-gradient-22" x1="2073.87" y1="1389.83" x2="1414.82" y2="2598.09" xlink:href="#linear-gradient-7"/>
    <linearGradient id="linear-gradient-23" x1="2185.34" y1="1450.63" x2="1526.29" y2="2658.89" xlink:href="#linear-gradient-7"/>
    <linearGradient id="linear-gradient-24" x1="1343.12" y1="1252.74" x2="3127.14" y2="1252.74" xlink:href="#linear-gradient-2"/>
  </defs>
  <g class="cls-1">
    <g id="Illustration">
      <g>
        <path class="cls-2" d="M3112.43,2334.08C2834.67,2983.3,2101.5,3262.15,1527,3214.6c-156.85-13-472.43-39.1-718.85-272.12C335,2495,407.86,1559.56,860.86,1008.84,919.2,937.92,1323,462.75,1952.26,469.11,2413,473.77,2736.33,734,2775.65,766.44c49.67,40.95,159.22,138.28,258,292.69C3265.6,1421.92,3286,1928.39,3112.43,2334.08Z" transform="translate(-449.68 -455)"/>
        <g class="cls-3">
          <path class="cls-4" d="M1218.45,725c62.75-30.37,142.81,28.65,211.79,10.08,31.91-8.58,60.63-33.48,93.12-26.61,23.52,5,38,25.22,60.25,33.42,38.37,14.17,84.13-11.72,124-.81,17.82,4.87,31.7,16.45,47.72,24.61,30.54,15.56,70,18.07,103,6.53,9.92-3.47,19.6-8.19,30.33-8.73,20.86-1,37.4,13.43,54.7,23.25,44.07,25,109,19.7,146.49-12,6.27-5.31,12.41-11.53,21.08-13.24,7.75-1.52,15.74,1,23.13,3.44,27.54,9.25,55.48,19.27,85.11,20.53s61.94-8.22,76.73-29.8c26.13,14.88,55.52,29.66,86.95,27.08s60.51-31.78,45.89-55.25c27.44,11.67,64.56.15,78.55-22.84s4.85-53.45-18.86-69.89-59.18-18.76-86.95-7.66c-22.86-35.88-75.89-56.21-123.2-47.21-17.9-42.26-76.63-69.08-128.65-58.75-45-43.73-114.69-68.76-183.48-65.9S1831,488.76,1791.34,536c0,0-108.2-30.08-136.06,20.19s-58.53-20.55-117.49,17.75-43.9,69.1-79.78,91.53-44.3,23.64-123.77,23-119.41,23.79-119.41,23.79Z" transform="translate(-449.68 -455)"/>
        </g>
        <g>
          <path class="cls-5" d="M1200.62,715H1254s.93,200.77,8,327.91c4.75,85.8,13.9,299,13.9,299l-104.08-1.3s-1.88-175.89,8.53-297.59C1191,918.55,1200.62,715,1200.62,715Z" transform="translate(-449.68 -455)"/>
          <path class="cls-6" d="M1254.74,794.93h-58.09s-.87,14.54-1.89,32.73l60.51.28C1255,809.56,1254.74,794.93,1254.74,794.93Z" transform="translate(-449.68 -455)"/>
          <path class="cls-7" d="M1256.27,881.23l-64.5,1.27c-.89,16-2.9,44-2.9,44l68.74,7.87S1256.48,897.23,1256.27,881.23Z" transform="translate(-449.68 -455)"/>
        </g>
        <g>
          <path class="cls-8" d="M1355.8,738.34h53.36s.93,200.51,8,327.65c4.75,85.8,13.9,298.83,13.9,298.83L1327,1363.46s-1.88-175.67,8.53-297.37C1346.15,941.64,1355.8,738.34,1355.8,738.34Z" transform="translate(-449.68 -455)"/>
          <path class="cls-9" d="M1409.61,811.58h-57.07c-.67,3.33-1.59,19.48-2.6,37.67l60.51-.32C1410.14,830.55,1409.91,814.91,1409.61,811.58Z" transform="translate(-449.68 -455)"/>
          <path class="cls-10" d="M1411.45,904,1347,905.3c-.89,16-2.8,36.93-4,57.55l70.26,11.62C1412.91,953.63,1411.66,920,1411.45,904Z" transform="translate(-449.68 -455)"/>
        </g>
        <g>
          <path class="cls-11" d="M907.22,1166.24C876,1141.74,708.16,1106,588.84,1169c-112.63,59.48,96.64,159.64-108.08,743.1L578.39,2027l481.52-269.59C818.52,1475.42,938.48,1190.74,907.22,1166.24Z" transform="translate(-449.68 -455)"/>
          <path class="cls-12" d="M881.35,1181.6a3.46,3.46,0,0,1-1.09-.18c-21-7.06-67.64-11.84-68.11-11.89a3.4,3.4,0,0,1,.68-6.76c1.95.2,47.91,4.91,69.6,12.21a3.4,3.4,0,0,1-1.08,6.62Z" transform="translate(-449.68 -455)"/>
          <path class="cls-12" d="M580.62,1205.27a3.4,3.4,0,0,1-2-6.12c.69-.52,17.36-12.65,63-25,72.47-19.62,133.57-12.52,134.18-12.44a3.39,3.39,0,1,1-.82,6.74c-.6-.07-60.46-7-131.59,12.26-44.38,12-60.54,23.77-60.7,23.89A3.4,3.4,0,0,1,580.62,1205.27Z" transform="translate(-449.68 -455)"/>
        </g>
        <g>
          <path class="cls-13" d="M1117.44,991.05c-28.68-23-194-60.08-308.93-5.8-108.53,51.23,88.72,4.88-90.66,518.24l-48.27,530,549.42-530C986.42,1257.7,1142.42,1006,1117.44,991.05Z" transform="translate(-449.68 -455)"/>
          <path class="cls-12" d="M1051.21,993.83a3.45,3.45,0,0,1-1-.15c-17.42-5.32-56-8.15-56.38-8.17a3.4,3.4,0,0,1,.49-6.78c1.61.12,39.73,2.91,57.87,8.45a3.4,3.4,0,0,1-1,6.65Z" transform="translate(-449.68 -455)"/>
          <path class="cls-12" d="M803.52,1020.51a3.39,3.39,0,0,1-2.11-6.06c.56-.44,14.12-10.92,51.59-22.23,59.47-18,110.19-13.53,110.7-13.48a3.39,3.39,0,0,1-.62,6.76c-.5,0-50-4.32-108.12,13.22-36,10.86-49.22,21-49.35,21.07A3.42,3.42,0,0,1,803.52,1020.51Z" transform="translate(-449.68 -455)"/>
        </g>
        <g>
          <ellipse class="cls-14" cx="1761.39" cy="2064.61" rx="1092.67" ry="1179.43" transform="translate(-828.16 3278.75) rotate(-87.49)"/>
          <path class="cls-15" d="M871.65,1340.69c-25.89,41.56-45.85,88.35-42.1,137.17,4.34,56.53,33,109.47,34.42,166.14,2.49,96.13-71.71,176.58-94.86,269.91-25.87,104.31,71.67,223.17,110.54,281.39s22.16-47.24,45.73-88.37S999.76,2280,1079.14,2327c42.58,25.22,92.55,42,123.18,80.88,44.67,56.71,32.29,137.4,25.59,209.27s3.34,159.47,68.07,191.42c38.11,18.82,86.56,12.45,121,37.42,60.41,43.86,31.55,139.48,55.49,210.18,26,76.89,77.64,77.9,157.49,94.21s-10.06-159.14,27.35-220.45c19.66-32.23,49.68-57.87,65.19-92.29,21.5-47.73,15.44-111.51,57.17-143.14,31.27-23.71,74.79-17.3,114-17.64s87-17.38,91.42-56.37c4-34.59-30.68-62.18-64.57-70.2s-70-4.19-103.27-14.44c-95.19-29.31-139.59-162.51-239-168.75-85-5.32-156.14,90.05-239.63,73.39-46.55-9.28-78.41-50.51-113-83-44.38-41.8-99.46-73.18-134.7-122.94s-41.23-129.29,8.9-164c37.23-25.78,90.14-15.32,126.93,11.1s61.85,65.62,88.86,102c8.35,11.23,17.79,22.86,31.14,27,35.92,11.25,62.14-39.29,53.54-75.94s-34.48-68.88-35.7-106.5c-2.14-66.31,69.26-108.38,131.9-130.23S1633,1850,1651.41,1786.3c6.5-22.52,4.8-47.29,14.72-68.51,32.91-70.35,206.52-105.47,165-146.26s-173.22-49.66-198.87-131.81c-9.18-29.41-18.63-68.28-49.31-71.13-50-4.63-78.49,57.22-120.4,67.84-19.9,5-21.81,38.84-21,80.4a54.64,54.64,0,0,1-109.26,2.07,84.59,84.59,0,0,1,6.35-33.81c8.07-19.78,23.4-35.59,38.85-50.35,64.47-61.55,256.84-129.19,216.55-155.39s-233.62-98.52-262.46-58.61,18.86,6.12,30.5,53.44-143,41-214.54,61.48c-11.8,3.38-24.9,6.68-36,1.32-12.36-6-17.56-20.36-24.27-32.34-35.91-64.16-155.36-22.52-155.36-22.52S894.78,1303.56,871.65,1340.69Z" transform="translate(-449.68 -455)"/>
          <path class="cls-16" d="M1411.94,1049.52c-17.36,32.37,34.28,31.85,39.41,68.21,46.48,5.07,65.57-68.22,111.54-76.77,25.94-4.83,51.1,13.76,65.2,36.07s20.67,48.5,32.62,72c26.77,52.72,82,89.82,141,94.62,12.82,1,27,.23,36.6-8.28,28-24.69-12.07-71.06-1.65-106.92,11.89-41,71-34.76,110.92-49.79,11-4.15,95.73-26.75,97.1-38.44,2.41-20.73-36.89-33.92-80.86-45.23-74.49-19.15-205.57-18.36-269.63-12.56-85.24,7.71-227.25,1.48-282.23,67.07Z" transform="translate(-449.68 -455)"/>
          <path class="cls-17" d="M2833.4,2441.55a1074.2,1074.2,0,0,0-4.73-365.49c-6-32.11-20-70.39-52.33-75-37.4-5.35-83.18,37.62-106.6,8-10.33-13.08-6.21-32.14-.35-47.76a316.52,316.52,0,0,1,70.45-110.42c19.16-19.48,41.08-36.75,55.83-59.75,31.56-49.19,9.41-121.06-35.25-158.75s-102.28,29.89-149.22,3.06-48.41-91.91-57.23-145.26c-6.53-39.52-35.65-146.57-67.81-94.43s42.9,259.68,127.38,359.17c10.19,12,21.44,25.44,20.58,41.16-2,37.54-56.76,35.87-93.56,43.56-45.55,9.51-115.37-14.89-76.84,64.49,20.33,41.86,117.39,99.16,91.31,127.18s-106.27,109.17-143.89,174.79-55.86,147.35-27.48,217.48,113.68,118.55,183.32,89c32.59-13.82,68.12-42.57,98.42-24.25,27.44,16.59,23.39,56.41,22,88.44s17.11,74.56,48.28,67c10.25-2.47,18.32-10.25,25.24-18.21C2804.8,2575.15,2822.87,2507.52,2833.4,2441.55Z" transform="translate(-449.68 -455)"/>
          <ellipse class="cls-18" cx="1247.87" cy="1530.77" rx="925.49" ry="874.29"/>
          <g class="cls-19">
            <path class="cls-12" d="M2091.16,2083.36c-.28,192.68-13.47,385.76-47.34,575.71-8.58,47.45-18.53,94.67-30.38,141.44s-25.62,93.1-42.44,138.41-36.63,89.73-63.31,130.42c-13.45,20.19-28.7,39.54-47.5,55.44a135.3,135.3,0,0,1-31,20,92.91,92.91,0,0,1-36.22,8.55,91.29,91.29,0,0,1-36.62-6.74,127.39,127.39,0,0,1-31.77-18.93c-19.25-15.41-34.84-34.54-48.52-54.57s-25.31-41.45-35.86-63.23-19.86-44.13-28.38-66.74c-17-45.23-30.89-91.54-42.89-138.27s-22-93.94-30.67-141.37c-17.26-94.89-29-190.69-36.94-286.76s-11.8-192.46-12.25-288.86c-.22-48.2,1-96.38,2.74-144.54s4.4-96.28,7.92-144.34c7.08-96.12,17.68-192,33.45-287.13,7.92-47.54,17.15-94.88,28.27-141.81s24.09-93.44,40.16-139c8.07-22.74,16.91-45.24,27-67.21a491.15,491.15,0,0,1,34.55-63.75c13.26-20.22,28.5-39.51,47.47-55a121.49,121.49,0,0,1,31.38-18.83,88.69,88.69,0,0,1,36.07-6.42,95.49,95.49,0,0,1,35.64,8.37,139.08,139.08,0,0,1,31,19.36c18.93,15.4,34.61,34.24,48.51,54,27.64,39.83,48.49,83.77,66.53,128.48s32.71,90.82,45.59,137.29,23.69,93.5,33.09,140.78C2075.54,1697.55,2090.64,1890.65,2091.16,2083.36Zm-12.85,0c.15-96-3.52-192.11-11.52-287.82s-19.87-191.14-37.68-285.51c-8.89-47.17-19.25-94.08-31.56-140.48s-26.63-92.26-44-137-37.76-88.38-64.66-128c-13.52-19.65-28.77-38.32-47.08-53.51A135.13,135.13,0,0,0,1812,1032a89.38,89.38,0,0,0-34.09-8.29,83.73,83.73,0,0,0-34.4,6.45,117,117,0,0,0-30.08,18.46c-18.28,15.17-33.09,34.25-46,54.3a484.68,484.68,0,0,0-33.53,63.37c-9.77,21.87-18.32,44.28-26.12,67-15.52,45.38-28,91.81-38.58,138.61s-19.33,94.06-26.75,141.5c-14.78,94.91-24.4,190.59-30.51,286.46s-8.36,192-8.19,288q-.33,144.06,10.2,287.88c7.23,95.77,18.29,191.29,34.81,285.87,8.29,47.28,18,94.32,29.54,140.88s25.07,92.64,41.64,137.59c8.28,22.47,17.38,44.63,27.61,66.24s21.62,42.66,34.85,62.46,28.33,38.4,46.63,53.24a119.81,119.81,0,0,0,29.86,18.1,82.52,82.52,0,0,0,33.81,6.42,85.83,85.83,0,0,0,33.47-8.17,128,128,0,0,0,29.25-19.19c17.9-15.35,32.66-34.28,45.67-54.16,25.87-40.06,45.07-84.27,61.54-129.18s29.66-91.17,41.15-137.74,21-93.66,29.21-141c16.41-94.6,27.33-190.13,34.59-285.89S2078.34,2179.42,2078.31,2083.36Z" transform="translate(-449.68 -455)"/>
            <path class="cls-12" d="M2577.23,2083.36c-.65,124-16.57,248.13-49.76,367.74-33.74,119.35-84.61,234.18-153.7,337.28a971.73,971.73,0,0,1-117.45,144c-43.73,44-92.09,83.44-144.6,116.5S2002.38,3108.15,1943,3126a630.44,630.44,0,0,1-367,.14c-59.46-17.84-116.27-44.17-168.88-77.08s-101-72.47-144.78-116.43a971.76,971.76,0,0,1-117.66-143.92c-69.22-103.12-120.18-218-154.07-337.39-33.45-119.65-49.33-243.88-49.85-368a1459.14,1459.14,0,0,1,12.66-185.66,1336.73,1336.73,0,0,1,37.41-182.28c34-119.35,85-234.16,154.26-337.18a971.44,971.44,0,0,1,117.67-143.78c43.79-43.89,92.18-83.3,144.74-116.24a700.45,700.45,0,0,1,168.76-76.83,626.54,626.54,0,0,1,366.45.14,699.62,699.62,0,0,1,168.64,76.94c52.5,33,100.83,72.42,144.56,116.32a970.78,970.78,0,0,1,117.46,143.82c69.14,103,120.08,217.76,153.9,337.07C2560.51,1835.25,2576.5,1959.32,2577.23,2083.36Zm-14.74,0c-.21-122.77-15.53-245.66-47.95-364.16-32.62-118.31-81.73-232.5-149.3-335.19a961.14,961.14,0,0,0-115-143.57c-43-43.88-90.4-83.56-142.28-116.55-51.93-32.8-108-59.2-166.82-77.06a612.34,612.34,0,0,0-363.15.14c-58.78,17.9-114.82,44.34-166.7,77.18-51.83,33-99.21,72.73-142.1,116.62a961.61,961.61,0,0,0-114.85,143.6c-67.44,102.68-116.46,216.83-148.93,335.09a1345.6,1345.6,0,0,0-35.83,180.38,1400.56,1400.56,0,0,0,.11,367,1343.32,1343.32,0,0,0,35.94,180.33c32.55,118.22,81.64,232.3,149.12,334.88a960.7,960.7,0,0,0,114.86,143.45c42.89,43.83,90.24,83.51,142.06,116.44,51.87,32.76,107.9,59,166.58,76.92a608.45,608.45,0,0,0,362.64.15c58.7-17.85,114.77-44.08,166.7-76.82s99.28-72.54,142.23-116.35a960.7,960.7,0,0,0,115.06-143.43c67.61-102.59,116.8-216.72,149.49-335C2546.81,2329,2562.2,2206.12,2562.49,2083.36Z" transform="translate(-449.68 -455)"/>
            <path class="cls-12" d="M804.33,1659.9l245.81-1.78,245.82-1,491.63-.81,491.64.9,245.82,1.11,245.82,1.93a.65.65,0,0,1,0,1.3l-245.82,1.93-245.82,1.11-491.64.9-491.63-.82-245.82-1-245.81-1.78a1,1,0,1,1,0-1.94Z" transform="translate(-449.68 -455)"/>
            <path class="cls-12" d="M1089.5,1248.18c58.18-.83,116.35-1.19,174.53-1.79l174.52-1c58.17-.43,116.35-.38,174.52-.52l174.52-.3,349,.9,174.52,1.11c58.18.66,116.35,1,174.53,1.93a.66.66,0,0,1,0,1.31c-58.18.89-116.35,1.27-174.53,1.93l-174.52,1.11-349,.9-174.52-.3c-58.17-.14-116.35-.09-174.52-.52l-174.52-1c-58.18-.6-116.35-1-174.53-1.79a1,1,0,0,1,0-1.93Z" transform="translate(-449.68 -455)"/>
            <path class="cls-12" d="M718.9,2071.62l267.17-1.78,267.18-1,534.34-.82,534.35.9,267.18,1.11,267.17,1.93a.65.65,0,1,1,0,1.3l-267.17,1.93-267.18,1.11-534.35.9-534.34-.81-267.18-1-267.17-1.78a1,1,0,0,1,0-1.94Z" transform="translate(-449.68 -455)"/>
            <path class="cls-12" d="M804.33,2483.35l245.81-1.79,245.82-1,491.63-.82,491.64.9,245.82,1.11,245.82,1.93a.66.66,0,0,1,.64.66.65.65,0,0,1-.64.65l-245.82,1.93L2279.23,2488l-491.64.9-491.63-.82-245.82-1-245.81-1.79a1,1,0,1,1,0-1.93Z" transform="translate(-449.68 -455)"/>
            <path class="cls-12" d="M2520.86,2899.43H1124.68a3.4,3.4,0,1,1,0-6.79H2520.86a3.4,3.4,0,1,1,0,6.79Z" transform="translate(-449.68 -455)"/>
          </g>
        </g>
        <g>
          <polygon class="cls-20" points="2757.19 2734.85 2520.6 2734.85 2546.49 1567.68 2546.19 1534.66 2546.81 1496.14 2547.59 1463.12 2554.72 1259.69 2554.75 1254.38 2740.68 1254.38 2740.68 1567.68 2757.19 2734.85"/>
          <rect class="cls-21" x="2520.6" y="1221.04" width="246.75" height="40.01" rx="11.01"/>
          <rect class="cls-22" x="2477.31" y="2735.46" width="333.33" height="54.05" rx="14.87"/>
          <polygon class="cls-23" points="2740.68 1467.78 2740.68 1494.46 2546.06 1494.46 2547.21 1467.78 2740.68 1467.78"/>
          <polygon class="cls-23" points="2740.68 1527.8 2740.68 1567.81 2543.47 1567.81 2544.68 1527.8 2740.68 1527.8"/>
        </g>
        <g>
          <polygon class="cls-24" points="2387.51 2734.85 2150.93 2734.85 2176.82 1567.68 2176.52 1534.66 2177.14 1496.14 2177.92 1463.12 2185.05 1259.69 2185.08 1254.38 2371 1254.38 2371 1567.68 2387.51 2734.85"/>
          <rect class="cls-25" x="2150.93" y="1221.04" width="246.75" height="40.01" rx="11.01"/>
          <rect class="cls-26" x="2107.64" y="2735.46" width="333.33" height="54.05" rx="14.87"/>
          <polygon class="cls-23" points="2371 1467.78 2371 1494.46 2176.38 1494.46 2177.54 1467.78 2371 1467.78"/>
          <polygon class="cls-23" points="2371 1527.8 2371 1567.81 2173.8 1567.81 2175.01 1527.8 2371 1527.8"/>
        </g>
        <g>
          <path class="cls-27" d="M3053.6,2387.31l-277.79,190.76V2429.88c0-22.34-22.68-35.88-40-23.89l-248.62,172.08V2431c0-22.63-23-36.31-40.53-24.11l-248.11,172.82V2435.68c0-25.4-25-41.56-45.5-29.44L1945.13,2529c-34.67,20.48-55.84,60.4-54.78,103.29l14.6,590a30.34,30.34,0,0,0,30.18,29.77l1127-5.28c16.06-.07,29.12-13.57,29.17-30.11l2.5-806.45c0-1.08,0-2.14-.14-3.18C3091.77,2386.61,3069.63,2376.31,3053.6,2387.31Z" transform="translate(-449.68 -455)"/>
          <g>
            <g>
              <path class="cls-28" d="M2024.29,2726.25h-35.84a9.73,9.73,0,0,0-4.43,1.29,2.86,2.86,0,0,0-1.71,2.49l4.36,57.67c.13,1.71,2.84,4.28,6.13,4.28h35c1.67,0,3.26-1.49,4.42-2.11a3.46,3.46,0,0,0,1.73-2.89l-3.48-57.05C2030.33,2728.21,2027.61,2726.25,2024.29,2726.25Z" transform="translate(-449.68 -455)"/>
              <path class="cls-28" d="M2179.4,2726.25h-35.85a9.66,9.66,0,0,0-4.37,1.26,2.93,2.93,0,0,0-1.77,2.44l1.52,57.67c0,1.74,2.78,4.36,6.14,4.36h35c1.63,0,3.2-1.48,4.35-2.08a3.53,3.53,0,0,0,1.79-2.83l-.64-57.05C2185.52,2728.26,2182.78,2726.25,2179.4,2726.25Z" transform="translate(-449.68 -455)"/>
              <path class="cls-28" d="M2315.79,2726.25h-35.85c-3.37,0-6.11,1.72-6.14,3.47l-1,56.61c0,.85.62,2.89,1.78,3.49s2.72,2.16,4.36,2.16h35c3.35,0,6.08-2.53,6.14-4.27l1.86-57a3.54,3.54,0,0,0-1.76-2.88A9.91,9.91,0,0,0,2315.79,2726.25Z" transform="translate(-449.68 -455)"/>
              <path class="cls-28" d="M2456.6,2727.54a9.73,9.73,0,0,0-4.43-1.29h-35.84c-3.32,0-6,1.68-6.14,3.4l-3.47,56.61c-.06.86.57,2.91,1.72,3.53s2.75,2.19,4.42,2.19h35c3.29,0,6-2.49,6.14-4.2l4.35-57.18A3.67,3.67,0,0,0,2456.6,2727.54Z" transform="translate(-449.68 -455)"/>
            </g>
            <g>
              <path class="cls-28" d="M2583.51,2726.25h-35.84a9.73,9.73,0,0,0-4.43,1.29,2.84,2.84,0,0,0-1.71,2.49l4.35,57.67c.13,1.71,2.84,4.28,6.14,4.28h35c1.67,0,3.26-1.49,4.42-2.11a3.42,3.42,0,0,0,1.72-2.89l-3.47-57.05C2589.55,2728.21,2586.83,2726.25,2583.51,2726.25Z" transform="translate(-449.68 -455)"/>
              <path class="cls-28" d="M2738.62,2726.25h-35.85a9.66,9.66,0,0,0-4.37,1.26,2.93,2.93,0,0,0-1.77,2.44l1.51,57.67c.05,1.74,2.79,4.36,6.15,4.36h35c1.64,0,3.21-1.48,4.36-2.08a3.55,3.55,0,0,0,1.79-2.83l-.64-57.05C2744.74,2728.26,2742,2726.25,2738.62,2726.25Z" transform="translate(-449.68 -455)"/>
              <path class="cls-28" d="M2875,2726.25h-35.84c-3.37,0-6.12,1.72-6.15,3.47l-1,56.61c0,.85.62,2.89,1.78,3.49s2.72,2.16,4.36,2.16h35c3.35,0,6.08-2.53,6.14-4.27l1.86-57a3.53,3.53,0,0,0-1.77-2.88A9.82,9.82,0,0,0,2875,2726.25Z" transform="translate(-449.68 -455)"/>
              <path class="cls-28" d="M3015.82,2727.54a9.73,9.73,0,0,0-4.43-1.29h-35.84c-3.32,0-6,1.68-6.15,3.4l-3.47,56.61c0,.86.57,2.91,1.73,3.53s2.75,2.19,4.41,2.19h35c3.3,0,6-2.49,6.14-4.2l4.35-57.18A3.65,3.65,0,0,0,3015.82,2727.54Z" transform="translate(-449.68 -455)"/>
            </g>
          </g>
          <g>
            <g>
              <path class="cls-28" d="M2024.29,2849.13h-35.84a9.72,9.72,0,0,0-4.43,1.24,2.83,2.83,0,0,0-1.71,2.47l4.36,56.28c.13,1.71,2.84,2.87,6.13,2.87h35a9.72,9.72,0,0,0,4.42-.72c1.15-.62,1.78-1.33,1.73-2.19l-3.48-56.66C2030.33,2850.7,2027.61,2849.13,2024.29,2849.13Z" transform="translate(-449.68 -455)"/>
              <path class="cls-28" d="M2179.4,2849.13h-35.85a9.77,9.77,0,0,0-4.37,1.21,2.91,2.91,0,0,0-1.77,2.42l1.52,56.27c0,1.75,2.78,3,6.14,3h35a9.63,9.63,0,0,0,4.35-.69c1.16-.6,1.8-1.29,1.79-2.14l-.64-56.66C2185.52,2850.75,2182.78,2849.13,2179.4,2849.13Z" transform="translate(-449.68 -455)"/>
              <path class="cls-28" d="M2315.79,2849.13h-35.85c-3.37,0-6.11,1.67-6.14,3.42l-1,56.59c0,.85.62,1.49,1.78,2.09a9.62,9.62,0,0,0,4.36.76h35c3.35,0,6.08-1.14,6.14-2.88l1.86-56.33a3,3,0,0,0-1.76-2.49A9.71,9.71,0,0,0,2315.79,2849.13Z" transform="translate(-449.68 -455)"/>
              <path class="cls-28" d="M2456.6,2850.37a9.72,9.72,0,0,0-4.43-1.24h-35.84c-3.32,0-6,1.63-6.14,3.35l-3.47,56.59c-.06.86.57,1.52,1.72,2.14a9.69,9.69,0,0,0,4.42.78h35c3.29,0,6-1.1,6.14-2.81l4.35-56.46A2.67,2.67,0,0,0,2456.6,2850.37Z" transform="translate(-449.68 -455)"/>
            </g>
            <g>
              <path class="cls-28" d="M2583.51,2849.13h-35.84a9.72,9.72,0,0,0-4.43,1.24,2.81,2.81,0,0,0-1.71,2.47l4.35,56.28c.13,1.71,2.84,2.87,6.14,2.87h35a9.72,9.72,0,0,0,4.42-.72c1.15-.62,1.78-1.33,1.72-2.19l-3.47-56.66C2589.55,2850.7,2586.83,2849.13,2583.51,2849.13Z" transform="translate(-449.68 -455)"/>
              <path class="cls-28" d="M2738.62,2849.13h-35.85a9.77,9.77,0,0,0-4.37,1.21,2.91,2.91,0,0,0-1.77,2.42l1.51,56.27c.05,1.75,2.79,3,6.15,3h35a9.65,9.65,0,0,0,4.36-.69c1.15-.6,1.8-1.29,1.79-2.14l-.64-56.66C2744.74,2850.75,2742,2849.13,2738.62,2849.13Z" transform="translate(-449.68 -455)"/>
              <path class="cls-28" d="M2875,2849.13h-35.84c-3.37,0-6.12,1.67-6.15,3.42l-1,56.59c0,.85.62,1.49,1.78,2.09a9.62,9.62,0,0,0,4.36.76h35c3.35,0,6.08-1.14,6.14-2.88l1.86-56.33a3,3,0,0,0-1.77-2.49A9.64,9.64,0,0,0,2875,2849.13Z" transform="translate(-449.68 -455)"/>
              <path class="cls-28" d="M3015.82,2850.37a9.72,9.72,0,0,0-4.43-1.24h-35.84c-3.32,0-6,1.63-6.15,3.35l-3.47,56.59c0,.86.57,1.52,1.73,2.14a9.68,9.68,0,0,0,4.41.78h35c3.3,0,6-1.1,6.14-2.81l4.35-56.46C3017.59,2851.85,3017,2851,3015.82,2850.37Z" transform="translate(-449.68 -455)"/>
            </g>
          </g>
        </g>
        <g>
          <path class="cls-29" d="M828.33,2013.3s315.83-144,55.38-216.21c0,0,3.13-96.32,3.32-112.93-6.6,0-27.94,11.81-30.3,39.36-2.26,26.27-15.09,41.15-15.09,41.15s-7.5-27.3-22.41-25.23l10.36,46.93s12.81,32.3,30.46,32.3c7.76,1.65,175.45,50.68-27.84,101.56,0,0-12.93,3.76-13.89,9.86C815.39,1948.64,811.91,1987.66,828.33,2013.3Z" transform="translate(-449.68 -455)"/>
          <path class="cls-30" d="M685,1763.67s-35,17-41.41,36.56c-5.16,15.68-43.84,17.7-47.66,48.54-2,15.93-13.75,28.68-29.61,31.11-39.5,6.06-100.38,26.57-110.12,95.15-7.43,52.35,19.26,72.2,47.26,79.07,20.57,5,34.24,25.05,30.08,45.82-4,19.92,2,42.94,36.47,61.15,77.33,40.81,154.56-96.67,154.56-96.67l15.82-240Z" transform="translate(-449.68 -455)"/>
          <path class="cls-31" d="M685.37,3195.89l-5,41.14a17,17,0,0,1-14.91,14.86c-13.19,1.51-34.35,3.05-55.05.87a14.56,14.56,0,0,1-12.22-18.88c5-15.88,14.28-39.72,27.59-53.75h45.64A14.06,14.06,0,0,1,685.37,3195.89Z" transform="translate(-449.68 -455)"/>
          <path class="cls-32" d="M1025.32,2730.63l25.18,28.67s-25.8,261.27-30.38,365.77a81.9,81.9,0,0,0,12.12,46.55l44.85,72.83-114-67.26-2.27-13.91,18.66-25.66s-21.25-211.32-24.44-292.69S972.22,2730,972.22,2730Z" transform="translate(-449.68 -455)"/>
          <path class="cls-33" d="M1084.59,3255h-36.37a21.94,21.94,0,0,1-17.39-8.52c-11.34-14.74-34.83-43.48-46.07-44.24-15.12-1-13.18,52.76-13.18,52.76H963.1l-10.74-66.81a39.56,39.56,0,0,1,20.75-41.34s3.46,25.57,22.21,36.88,76.28,51.81,76.28,51.81a51.8,51.8,0,0,1,14.78.39C1097.86,3238,1096.26,3255,1084.59,3255Z" transform="translate(-449.68 -455)"/>
          <path class="cls-34" d="M886.67,2735.51s-151.11,286.63-175.13,352.08-32.43,120-32.76,125.21c-.5,8.07-10.55,15.82-38.24,15.82-14.3,0-21.3-5.73-24.72-11.27a16.15,16.15,0,0,1-.62-15.64c8.74-17.69,36.48-74.22,46.76-99.86,12.26-30.62,38.65-169.35,53.12-217.59s30.82-100.56,93.84-148.75C808.92,2735.51,852.17,2693.14,886.67,2735.51Z" transform="translate(-449.68 -455)"/>
          <path class="cls-35" d="M716.15,2265.84c39-165.17-59.77-258.59-59.77-258.59,62.31-59.81,175.83-87,175.83-87s108.33,79.19,95.48,141.18c-7.54,36.33-76.15,217.62-76.15,217.62S788.1,2309.05,716.15,2265.84Z" transform="translate(-449.68 -455)"/>
          <path class="cls-36" d="M861.19,2349.88c-15.86-47.79-9.65-70.85-9.65-70.85-59,25.13-135.39-13.19-135.39-13.19s-103.74,47.58-50.61,172.06c43.14,101.07,135.84,303.59,135.84,303.59,97.07,19.67,249.12,17.81,249.12,17.81C989.09,2538.38,877.05,2397.67,861.19,2349.88Z" transform="translate(-449.68 -455)"/>
          <path class="cls-37" d="M713.92,1874.39l15.78,79c-3,12.54,8.4,10.49,21.08,8.1,20.76-3.92,47.51-12,56.46-28.13a15.48,15.48,0,0,0,1.62-5.37L775,1892.63A17.74,17.74,0,0,0,764.61,1874l-26.27-11.64A17.72,17.72,0,0,0,713.92,1874.39Z" transform="translate(-449.68 -455)"/>
          <g>
            <path class="cls-38" d="M739.51,1746.75s39.26,10.89,71.54,61.39,16.6,77.79-6.7,84.28-63.66,1-105.71-28.89S688.71,1734.39,739.51,1746.75Z" transform="translate(-449.68 -455)"/>
            <path class="cls-39" d="M725,1841.13s-38.29-75.05,31.36-85l17.9,9.35s19.95-47-24.77-62.33-91.66,8.2-102.2,67.12-8.68,97.21,24.58,120.44,41.53-9.07,41.53-9.07-19.48-23.23-14.64-37.64,22.17,9.56,22.17,9.56Z" transform="translate(-449.68 -455)"/>
          </g>
          <path class="cls-40" d="M577.58,1829.51s-179,233.35,78.8,177.74c51.14,32,46.37,71.7,46.37,71.7s-437.85,55.42-161.7-242.48c4.5-4.85,3.86-12.1,4.44-18.7,1.21-13.88,12.62-40.19,13.41-54.1,1-17.32,26.64-55.34,43-51.53,11.15,2.6,6.88,21.83,5,33.12l-21,47.81c-2.13,13.18,1.54,10,14.86,9,0,0,8.2-2.78,9-.67C612.48,1808,577.58,1829.51,577.58,1829.51Z" transform="translate(-449.68 -455)"/>
        </g>
        <g>
          <circle class="cls-41" cx="1199.88" cy="1510.52" r="598.42"/>
          <circle class="cls-42" cx="1203.14" cy="1513.43" r="531.63"/>
          <g>
            <path class="cls-43" d="M1451.4,2211.78q-73.79,0-112.34-53.77t-38.56-158q0-109,36.52-162.77t112.9-53.76a188.28,188.28,0,0,1,48.2,6.67,162.38,162.38,0,0,1,45.24,19.28l-28.18,76.75q-30.78-18.17-54.51-18.16-31.51,0-45.42,32.81t-13.9,98.44q0,64.14,13.72,95.85t44.86,31.7q37.08,0,77.49-26v86.77Q1498.5,2211.77,1451.4,2211.78Z" transform="translate(-449.68 -455)"/>
            <path class="cls-44" d="M1902.64,1997.1q0,101.58-43,158.13t-117.91,56.55q-47.46,0-83.79-26t-56-74.71q-19.67-48.77-19.65-114,0-100.49,42.64-157t118.27-56.54q73,0,116.24,57.65T1902.64,1997.1Zm-219.5,0q0,64.51,14.09,97.51t45.23,33q59.32,0,59.33-130.51,0-64.89-14.28-97t-45-32.07q-31.14,0-45.23,32.07T1683.14,1997.1Z" transform="translate(-449.68 -455)"/>
            <path class="cls-45" d="M2030.24,1923H1922.55v-27.89l35.71-50.54q14.7-20.88,20.2-31a94.12,94.12,0,0,0,8.1-19.37,70.32,70.32,0,0,0,2.61-19.16q0-11.54-5.15-17.3a17.11,17.11,0,0,0-13.39-5.77,25.71,25.71,0,0,0-13.6,3.84q-6.32,3.85-15.39,13.88l-20.87-22q14.42-16.35,26.78-22.39a60.14,60.14,0,0,1,26.78-6q24.32,0,38,14.28t13.67,39.7a93.27,93.27,0,0,1-2.47,21.84,102.53,102.53,0,0,1-7.49,20.67,174.18,174.18,0,0,1-12.57,21.56q-7.54,11.21-39,51.31v1.1h65.79Z" transform="translate(-449.68 -455)"/>
          </g>
        </g>
        <path class="cls-46" d="M3126.43,1276.91c-12-126.92-153.21-116.25-232.07-178.48-33.82-26.69-56-64.83-97.7-81.48-54.89-21.9-91.19-5.85-144.48-2.89-65.67,3.66-132.59-18.8-199.41-15.52-77.55,3.81-159.11,32.15-203.2,96.07-3.71,5.39-7.36,11.2-13.07,14.38-9.55,5.31-21.36,1.63-31.72-1.84-77-25.83-161.88-34.83-239.62-11.19-58.42,17.77-188.66,98.52-162.4,174.52-7.69-22.24-111.17-9.37-128-5.73-43.53,9.44-86.49,29.69-128.68,44-52.35,17.75-98.63,49.5-144.15,80.87l-58.84,40.55A936.69,936.69,0,0,1,1482,1406c7.28-.7,14.86-1.29,21.72,1.27,7.26,2.72,12.79,8.62,19.17,13,29.54,20.36,89.37,10.31,122.41,6.89,40-4.13,87.48-1.21,110.16,32,5.71,8.36,9.34,18.11,15.9,25.8,10.86,12.72,28.09,18,44.64,20.32,86.12,12.27,171-36.72,257.81-30.57,50.35,3.57,103.91,25.07,148.92,2.21,56.8-28.84,108.33-90.25,176.43-92.24,34.19-1,66.48,14.49,100,21.14,188.51,37.38,349.63-232.31,531.21-94.78,10.4,7.87,20.1,16.9,27.2,27.84,9.39,14.47,13.77,31.54,18,48.26q14.41,56.88,28.85,113.76,9.69-83.34,19.37-166.69c2.08-17.93,4.17-36,2.82-54C3126.63,1279.11,3126.53,1278,3126.43,1276.91Z" transform="translate(-449.68 -455)"/>
      </g>
    </g>
  </g>
</svg>
