<svg id="Layer_1" data-name="Layer 1" xmlns="http://www.w3.org/2000/svg" width="3189.06" height="1631.61" viewBox="0 0 3189.06 1631.61">
  <defs>
    <style>
      .cls-1, .cls-15 {
        fill: #fff;
      }

      .cls-1 {
        opacity: 0.8;
      }

      .cls-2 {
        fill: #86b1f2;
      }

      .cls-3 {
        fill: #355389;
      }

      .cls-4 {
        fill: #3c8f7c;
      }

      .cls-5 {
        fill: #50bfa5;
      }

      .cls-6 {
        fill: #96d9c9;
      }

      .cls-7 {
        fill: #184655;
      }

      .cls-8 {
        fill: #f8c48b;
      }

      .cls-9 {
        fill: #ee944c;
      }

      .cls-10 {
        fill: #f7a491;
      }

      .cls-11 {
        fill: #f7cc7f;
      }

      .cls-12 {
        fill: #466eb6;
      }

      .cls-13 {
        fill: #f47458;
      }

      .cls-14, .cls-19 {
        fill: #b75742;
      }

      .cls-16 {
        fill: #13375b;
      }

      .cls-17 {
        fill: #fae0b2;
      }

      .cls-18 {
        fill: #f48c7f;
      }

      .cls-19 {
        opacity: 0.5;
      }

      .cls-20 {
        fill: #ed9a8c;
      }

      .cls-21 {
        fill: #29446d;
      }

      .cls-22 {
        fill: #4e9b87;
      }
    </style>
  </defs>
  <g>
    <path class="cls-1" d="M1289.23,730.83c-6-24-29.12-41.89-56.83-41.89a62.91,62.91,0,0,0-14.72,1.74c-13.68-27.09-43.35-45.86-77.77-45.86a92,92,0,0,0-25.55,3.59C1095.84,620,1062.18,601,1023.73,601,978,601,939,627.88,924.25,665.54A76.74,76.74,0,0,0,889,657.05c-40.1,0-72.61,30.11-72.61,67.26a61.2,61.2,0,0,0,.35,6.52Z" transform="translate(-164.46 -270.53)"/>
    <path class="cls-1" d="M1197.28,381.41c5.08-20.49,24.87-35.77,48.53-35.77a53.54,53.54,0,0,1,12.57,1.49c11.68-23.14,37-39.16,66.41-39.16A78.56,78.56,0,0,1,1346.6,311c15.82-24.27,44.56-40.5,77.4-40.5,39.06,0,72.34,23,84.94,55.12a65.58,65.58,0,0,1,30.14-7.24c34.25,0,62,25.71,62,57.43a53.94,53.94,0,0,1-.3,5.57Z" transform="translate(-164.46 -270.53)"/>
    <path class="cls-1" d="M1653.6,697.39c2.85-11.51,14-20.11,27.28-20.11a30.26,30.26,0,0,1,7.06.84c6.57-13,20.81-22,37.33-22a44.07,44.07,0,0,1,12.26,1.72c8.9-13.64,25-22.76,43.51-22.76,22,0,40.66,12.91,47.75,31a36.84,36.84,0,0,1,16.94-4.07c19.25,0,34.85,14.45,34.85,32.28,0,1.06-.06,2.1-.16,3.13Z" transform="translate(-164.46 -270.53)"/>
    <path class="cls-1" d="M2293.4,779.14c4.46-18,21.82-31.38,42.57-31.38a47,47,0,0,1,11,1.3c10.24-20.29,32.47-34.34,58.25-34.34a69.07,69.07,0,0,1,19.13,2.68c13.88-21.29,39.09-35.52,67.89-35.52,34.26,0,63.44,20.15,74.5,48.35a57.56,57.56,0,0,1,26.44-6.36c30,0,54.38,22.56,54.38,50.38a46.53,46.53,0,0,1-.26,4.89Z" transform="translate(-164.46 -270.53)"/>
    <path class="cls-2" d="M2267,1845c-385.72-41.46-868.77-443.95-1196.34-490.9-345.42-49.5-700.47,501.83-700.47,501.83L2267,1851.05Z" transform="translate(-164.46 -270.53)"/>
    <g>
      <rect class="cls-3" x="789.19" y="1158.01" width="17.11" height="189.66"/>
      <polygon class="cls-4" points="797.75 790.08 741.89 1241.44 853.6 1241.44 797.75 790.08"/>
      <polygon class="cls-5" points="762.15 1077.73 841.79 1146.03 838.73 1121.28 764.63 1057.74 762.15 1077.73"/>
      <polygon class="cls-5" points="774.39 978.8 823.16 995.47 820.87 976.94 776.5 961.77 774.39 978.8"/>
    </g>
    <g>
      <rect class="cls-3" x="956.02" y="1206.98" width="15.34" height="142.56"/>
      <polygon class="cls-4" points="965.82 952.8 925.73 1240.56 1005.91 1240.56 965.82 952.8"/>
      <polygon class="cls-5" points="928.27 1222.31 1000.21 1199.63 999.12 1191.82 929.46 1213.78 928.27 1222.31"/>
      <polygon class="cls-5" points="940.94 1131.4 988.61 1116.37 987.52 1108.57 942.13 1122.88 940.94 1131.4"/>
    </g>
    <path class="cls-6" d="M3209.4,1607.19l12.39-25.47c8.83-19.07,1.43-41.26-16.52-49.57h0c-45.23-20.94-99.92,1-122.16,49.09l-16.26,35.12c-7.13,15.39-21.48,25-36.57,26.13-13.71,1-26,10.14-32,23.21l-8.58,18.51a74.38,74.38,0,0,0-.17,62.23,45.13,45.13,0,0,1-.35,37.79L2977,1810.45c-13.41,29-2.17,62.73,25.12,75.36l15.57,7.21c27.29,12.63,60.29-.63,73.71-29.62h0c12.47-38.69,33.11-54.8,51.22-61.08a106,106,0,0,0,61.21-55.65l1.72-3.7a105.29,105.29,0,0,0,.86-86.73C3201.1,1644.26,3199.72,1628.09,3209.4,1607.19Z" transform="translate(-164.46 -270.53)"/>
    <path class="cls-6" d="M264.3,1606.92l-12.39-25.48c-8.83-19.07-1.43-41.26,16.52-49.57h0c45.23-20.93,99.92,1,122.16,49.09l16.26,35.13c7.13,15.38,21.48,25,36.57,26.12,13.7,1,26,10.14,32,23.21l8.58,18.52a74.38,74.38,0,0,1,.17,62.23,45.11,45.11,0,0,0,.35,37.78l12.13,26.22c13.42,29,2.18,62.73-25.11,75.36L456,1892.74c-27.29,12.63-60.29-.63-73.71-29.62h0c-12.47-38.69-33.11-54.79-51.22-61.08a106,106,0,0,1-61.22-55.65l-1.71-3.7a105.25,105.25,0,0,1-.86-86.73C272.6,1644,274,1627.81,264.3,1606.92Z" transform="translate(-164.46 -270.53)"/>
    <g>
      <rect class="cls-3" x="2487.39" y="1653.15" width="17.11" height="189.66" transform="translate(4827.44 3225.42) rotate(180)"/>
      <polygon class="cls-4" points="2331.49 1014.69 2387.34 1466.05 2275.64 1466.05 2331.49 1014.69"/>
      <polygon class="cls-5" points="2367.09 1302.35 2287.45 1370.64 2290.51 1345.89 2364.61 1282.35 2367.09 1302.35"/>
      <polygon class="cls-5" points="2354.84 1203.41 2306.08 1220.08 2308.37 1201.55 2352.74 1186.38 2354.84 1203.41"/>
    </g>
    <g>
      <rect class="cls-3" x="2364.95" y="1702.12" width="15.34" height="142.56" transform="translate(4580.79 3276.27) rotate(180)"/>
      <polygon class="cls-4" points="2206.03 1177.41 2246.13 1465.17 2165.94 1465.17 2206.03 1177.41"/>
      <polygon class="cls-5" points="2243.58 1446.91 2171.65 1424.24 2172.74 1416.43 2242.4 1438.39 2243.58 1446.91"/>
      <polygon class="cls-5" points="2230.92 1356.01 2183.25 1340.98 2184.34 1333.18 2229.73 1347.49 2230.92 1356.01"/>
    </g>
    <path class="cls-6" d="M232.43,1898s344.76-329,789.31-349.17C1171,1542.06,1782.26,1678.11,2297,1785c21.63,4.49,561.09,112,634.54,115.3Z" transform="translate(-164.46 -270.53)"/>
    <path class="cls-5" d="M2641.19,1900.3s90.06-119.63,146.74-138,3.26,54.52,3.26,54.52,100.55-109.94,137.44-100c33.82,9.09,0,77.23,0,77.23s38.09-37.73,84.29-37.73-35.71,141.3-35.71,141.3Z" transform="translate(-164.46 -270.53)"/>
    <path class="cls-4" d="M2931.53,1899.63S2993.1,1735,3069.35,1754c61.78,15.43,17.85,98.27,21.62,94.51s36.91-60,90.53-60-16.46,75.89-16.46,75.89,114.24-35.68,123.18,1.79c7.43,31.09-34.09,33.42-34.09,33.42Z" transform="translate(-164.46 -270.53)"/>
    <path class="cls-5" d="M645.52,1900.3s-90.07-119.63-146.74-138-3.26,54.52-3.26,54.52-97.86-133.5-134.75-123.59c-33.82,9.08-20,76.51-20,76.51s-20.74-13.45-66.93-13.45,35.7,141.3,35.7,141.3Z" transform="translate(-164.46 -270.53)"/>
    <path class="cls-4" d="M427.86,1899.63s-44.19-118.16-98.9-104.5c-44.35,11.08-12.82,70.53-15.52,67.83s-26.49-43.06-65-43.06,11.81,54.46,11.81,54.46-82-25.6-88.4,1.28c-5.33,22.32,24.47,24,24.47,24Z" transform="translate(-164.46 -270.53)"/>
    <g>
      <path class="cls-4" d="M714.19,1863.23a43.22,43.22,0,0,0,.62-7.32c0-27.73-26-50.21-58-50.21s-58,22.48-58,50.21a44.27,44.27,0,0,0,.61,7.32Z" transform="translate(-164.46 -270.53)"/>
      <path class="cls-5" d="M779.89,1850.89a87.61,87.61,0,0,0,.61-10.32c0-39.11-26-70.81-58-70.81s-58,31.7-58,70.81a87.61,87.61,0,0,0,.61,10.32Z" transform="translate(-164.46 -270.53)"/>
      <path class="cls-5" d="M758.64,1894.28A43.22,43.22,0,0,1,758,1887c0-27.73,26-50.21,58.05-50.21s58,22.48,58,50.21a44.27,44.27,0,0,1-.61,7.32Z" transform="translate(-164.46 -270.53)"/>
      <path class="cls-4" d="M665.73,1894.28A68.87,68.87,0,0,1,665,1884c0-39.11,32.95-70.81,73.59-70.81s73.59,31.7,73.59,70.81a67.58,67.58,0,0,1-.78,10.32Z" transform="translate(-164.46 -270.53)"/>
      <path class="cls-5" d="M722.23,1813.15c-20.31,0-38.45,10.06-50.43,25.83a83.47,83.47,0,0,0-19.29-2.23c-36.07,0-65.3,22.48-65.3,50.21a38.64,38.64,0,0,0,.69,7.32H786.84a76.23,76.23,0,0,0,.69-10.32C787.53,1844.85,758.3,1813.15,722.23,1813.15Z" transform="translate(-164.46 -270.53)"/>
    </g>
    <g>
      <g>
        <path class="cls-4" d="M470.6,1745.13c-17.09-26.69-20.28-58.93-20-81.28a208.86,208.86,0,0,1,4.89-42.6l-1.24-.43a211,211,0,0,0-4.92,42.89c-.34,22.57,2.88,55.14,20.18,82.17Z" transform="translate(-164.46 -270.53)"/>
        <path class="cls-4" d="M459.75,1616.82a18.24,18.24,0,0,1-6.35,12.92,21.17,21.17,0,0,1-4.25-14.55,18.24,18.24,0,0,1,6.35-12.92A21.15,21.15,0,0,1,459.75,1616.82Z" transform="translate(-164.46 -270.53)"/>
        <path class="cls-4" d="M448.2,1629.49a21,21,0,0,1,2.87,14.85,19.2,19.2,0,0,1-11.64-8.91,21.08,21.08,0,0,1-2.87-14.86A19.22,19.22,0,0,1,448.2,1629.49Z" transform="translate(-164.46 -270.53)"/>
        <path class="cls-4" d="M441.65,1644.4a20.55,20.55,0,0,1,8.73,12.22,16.94,16.94,0,0,1-13.8-2.45,20.58,20.58,0,0,1-8.72-12.22A16.91,16.91,0,0,1,441.65,1644.4Z" transform="translate(-164.46 -270.53)"/>
        <path class="cls-4" d="M443.67,1665.16a15.05,15.05,0,0,1,6.38,10.71,12,12,0,0,1-11.46-.94,15,15,0,0,1-6.37-10.71A12,12,0,0,1,443.67,1665.16Z" transform="translate(-164.46 -270.53)"/>
        <path class="cls-4" d="M458.4,1640.56a14.52,14.52,0,0,1,12.33-.71,15.49,15.49,0,0,1-7.72,10,14.52,14.52,0,0,1-12.33.71A15.49,15.49,0,0,1,458.4,1640.56Z" transform="translate(-164.46 -270.53)"/>
        <path class="cls-4" d="M458,1654.9a14.5,14.5,0,0,1,12.32-.71,15.48,15.48,0,0,1-7.71,10,14.52,14.52,0,0,1-12.33.71A15.46,15.46,0,0,1,458,1654.9Z" transform="translate(-164.46 -270.53)"/>
        <path class="cls-4" d="M446.25,1688a7.82,7.82,0,0,1,4.94,3.79,6.47,6.47,0,0,1-5.67,1.31,7.82,7.82,0,0,1-4.93-3.79A6.44,6.44,0,0,1,446.25,1688Z" transform="translate(-164.46 -270.53)"/>
      </g>
      <g>
        <path class="cls-4" d="M463.55,1764c-39.11-9.35-68.93-38.28-87.07-60.9a259.51,259.51,0,0,1-30.33-47.42l-1.6.82a262,262,0,0,0,30.54,47.75c18.31,22.85,48.45,52.07,88,61.54Z" transform="translate(-164.46 -270.53)"/>
        <path class="cls-4" d="M346.67,1647A25.83,25.83,0,0,1,351,1666.3a23.69,23.69,0,0,1-16.26-10.21,25.84,25.84,0,0,1-4.34-19.3A23.7,23.7,0,0,1,346.67,1647Z" transform="translate(-164.46 -270.53)"/>
        <path class="cls-4" d="M345.63,1671.31a24,24,0,0,1,15.14,11.92,23.73,23.73,0,0,1-19,2.87,24,24,0,0,1-15.14-11.91A23.69,23.69,0,0,1,345.63,1671.31Z" transform="translate(-164.46 -270.53)"/>
        <path class="cls-4" d="M351.43,1692.8a23.36,23.36,0,0,1,18.8,3.36,24.93,24.93,0,0,1-15.78,11.51,23.4,23.4,0,0,1-18.8-3.36A24.93,24.93,0,0,1,351.43,1692.8Z" transform="translate(-164.46 -270.53)"/>
        <path class="cls-4" d="M367,1712.33a23.4,23.4,0,0,1,18.8,3.37A24.92,24.92,0,0,1,370,1727.2a23.36,23.36,0,0,1-18.8-3.36A24.93,24.93,0,0,1,367,1712.33Z" transform="translate(-164.46 -270.53)"/>
        <path class="cls-4" d="M362.35,1679.86a25.35,25.35,0,0,1,5.57-17.41,22.1,22.1,0,0,1,7.31,15.84,25.3,25.3,0,0,1-5.57,17.41A22.18,22.18,0,0,1,362.35,1679.86Z" transform="translate(-164.46 -270.53)"/>
        <path class="cls-4" d="M378.6,1700.07a25.39,25.39,0,0,1,5.31-17.51,22.1,22.1,0,0,1,7.55,15.7,25.39,25.39,0,0,1-5.31,17.51A22.08,22.08,0,0,1,378.6,1700.07Z" transform="translate(-164.46 -270.53)"/>
        <path class="cls-4" d="M392,1731.6a9.63,9.63,0,0,1,8.05-1.21,10.4,10.4,0,0,1-4.57,7,9.56,9.56,0,0,1-8.05,1.21A10.46,10.46,0,0,1,392,1731.6Z" transform="translate(-164.46 -270.53)"/>
      </g>
      <g>
        <path class="cls-4" d="M567.07,1819.23l1.69-.11c-2.44-44.73,14-86.82,28.19-114.25,15.41-29.77,31.61-49.18,31.77-49.38l-1.24-1.27c-.16.19-16.47,19.74-32,49.68C581.17,1731.56,564.61,1774,567.07,1819.23Z" transform="translate(-164.46 -270.53)"/>
        <path class="cls-4" d="M636.07,1652.93c-3.87,6.5-9.41,10.54-15,11.65a32.73,32.73,0,0,1,4.29-20.9c3.86-6.5,9.41-10.54,15-11.64A32.61,32.61,0,0,1,636.07,1652.93Z" transform="translate(-164.46 -270.53)"/>
        <path class="cls-4" d="M615.42,1660.72a32,32,0,0,1-6,20.33c-4.26-4.34-7.11-11.11-7.38-19a32.05,32.05,0,0,1,6-20.33C612.3,1646.09,615.14,1652.87,615.42,1660.72Z" transform="translate(-164.46 -270.53)"/>
        <path class="cls-4" d="M598.94,1674.7a32,32,0,0,1,2.12,21.07c-5.5-1.41-10.61-5.74-13.79-12.44a32.06,32.06,0,0,1-2.12-21.07C590.65,1663.67,595.76,1668,598.94,1674.7Z" transform="translate(-164.46 -270.53)"/>
        <path class="cls-4" d="M587.62,1709.06a13.38,13.38,0,0,1,1.49,8.75,9,9,0,0,1-6.13-4.73,13.33,13.33,0,0,1-1.49-8.75A9,9,0,0,1,587.62,1709.06Z" transform="translate(-164.46 -270.53)"/>
        <path class="cls-4" d="M582.73,1721.39a13.35,13.35,0,0,1,1.49,8.76,9,9,0,0,1-6.13-4.73,13.42,13.42,0,0,1-1.49-8.76A9,9,0,0,1,582.73,1721.39Z" transform="translate(-164.46 -270.53)"/>
        <path class="cls-4" d="M619.88,1681.38a17.76,17.76,0,0,1,14.12,7.53,18.9,18.9,0,0,1-14.75,7.11,17.71,17.71,0,0,1-14.11-7.53A18.91,18.91,0,0,1,619.88,1681.38Z" transform="translate(-164.46 -270.53)"/>
        <path class="cls-4" d="M610.52,1698.82a17.71,17.71,0,0,1,14.11,7.53,18.89,18.89,0,0,1-14.74,7.11,17.76,17.76,0,0,1-14.12-7.53A18.9,18.9,0,0,1,610.52,1698.82Z" transform="translate(-164.46 -270.53)"/>
        <path class="cls-4" d="M595,1722.58a11.55,11.55,0,0,1,9.19,4.9,12.3,12.3,0,0,1-9.6,4.63,11.53,11.53,0,0,1-9.18-4.9A12.29,12.29,0,0,1,595,1722.58Z" transform="translate(-164.46 -270.53)"/>
      </g>
      <path class="cls-4" d="M421.24,1892.58c0-7.45,45,1.34,48.7-8.81s-38.51-10.73-38.51-24.45,21.54-4.1,34.16-4.1-24.93-5.87-24.93-10.73,13.18-2.31,13.18-7.47-69.19-9-61.09-21.67,45.29,3.68,55.51-2.85-54.57-13.66-56.17-23.37,47.73,8.32,54.72,1.34-78-32.1-74.46-50.55,64.43,23.63,79.64,19.1-76.72-69.31-55.36-94.54,62.16,83.53,76.08,79.65-17.43-68.74-3.21-80,55,91.31,57.62,112.37,7.75-45.31,30.09-53.08.65,41.13,4.53,56,22-38.2,46.46-34.32-44.19,52.45-37.39,66.69,59.79-47.55,76.4-31-63.83,62.7-59.43,75.32,52.66-9,66.55,4.89-51.84,22.72-60.56,22.72-42,11-9.5,8.81S421.24,1900,421.24,1892.58Z" transform="translate(-164.46 -270.53)"/>
      <g>
        <path class="cls-5" d="M549.41,1901.18s54.15,2.9,69.91-7,3.33-17.65,3.33-17.65,50.07-1.09,49.94-13-12.26-11.18-12.26-11.18,25.27-17.18,20.56-27.88c-7.24-16.45-48.41,12.19-48.41,12.19s13.49-16,2.59-19.77C605.14,1806.63,549.41,1901.18,549.41,1901.18Z" transform="translate(-164.46 -270.53)"/>
        <path class="cls-6" d="M680.89,1824.49c4.71,10.7-20.56,27.88-20.56,27.88s18.24-.24,15.28,11.3S626.8,1879,626.8,1879s16,3.13.24,13.06-77.63,9.08-77.63,9.08Z" transform="translate(-164.46 -270.53)"/>
      </g>
    </g>
    <g>
      <g>
        <path class="cls-4" d="M2808.37,1732.41c18.53-29,22-64,21.63-88.19a226.2,226.2,0,0,0-5.3-46.22l1.34-.47a227.94,227.94,0,0,1,5.35,46.54c.37,24.48-3.13,59.82-21.9,89.14Z" transform="translate(-164.46 -270.53)"/>
        <path class="cls-4" d="M2820.14,1593.19a19.77,19.77,0,0,0,6.89,14,23,23,0,0,0,4.6-15.79,19.76,19.76,0,0,0-6.88-14A22.87,22.87,0,0,0,2820.14,1593.19Z" transform="translate(-164.46 -270.53)"/>
        <path class="cls-4" d="M2832.67,1606.94a22.82,22.82,0,0,0-3.12,16.11,20.86,20.86,0,0,0,12.63-9.67,22.84,22.84,0,0,0,3.11-16.12A20.79,20.79,0,0,0,2832.67,1606.94Z" transform="translate(-164.46 -270.53)"/>
        <path class="cls-4" d="M2839.77,1623.11a22.33,22.33,0,0,0-9.47,13.26,18.34,18.34,0,0,0,15-2.65,22.42,22.42,0,0,0,9.47-13.26A18.33,18.33,0,0,0,2839.77,1623.11Z" transform="translate(-164.46 -270.53)"/>
        <path class="cls-4" d="M2837.58,1645.64a16.29,16.29,0,0,0-6.92,11.62,13.05,13.05,0,0,0,12.43-1,16.33,16.33,0,0,0,6.92-11.62A13,13,0,0,0,2837.58,1645.64Z" transform="translate(-164.46 -270.53)"/>
        <path class="cls-4" d="M2821.6,1619a15.77,15.77,0,0,0-13.38-.78,16.82,16.82,0,0,0,8.38,10.86,15.75,15.75,0,0,0,13.37.77A16.78,16.78,0,0,0,2821.6,1619Z" transform="translate(-164.46 -270.53)"/>
        <path class="cls-4" d="M2822.08,1634.51a15.74,15.74,0,0,0-13.38-.78,16.77,16.77,0,0,0,8.38,10.85,15.72,15.72,0,0,0,13.37.78A16.78,16.78,0,0,0,2822.08,1634.51Z" transform="translate(-164.46 -270.53)"/>
        <path class="cls-4" d="M2834.78,1670.39a8.47,8.47,0,0,0-5.36,4.11,7,7,0,0,0,6.15,1.42,8.45,8.45,0,0,0,5.35-4.11A7,7,0,0,0,2834.78,1670.39Z" transform="translate(-164.46 -270.53)"/>
      </g>
      <g>
        <path class="cls-4" d="M2816,1752.88c42.43-10.15,74.79-41.53,94.46-66.08a281.9,281.9,0,0,0,32.92-51.44l1.73.88a284,284,0,0,1-33.14,51.81c-19.86,24.79-52.56,56.49-95.51,66.77Z" transform="translate(-164.46 -270.53)"/>
        <path class="cls-4" d="M2942.82,1625.94a28.05,28.05,0,0,0-4.72,20.94,25.73,25.73,0,0,0,17.64-11.08,28,28,0,0,0,4.72-20.94A25.74,25.74,0,0,0,2942.82,1625.94Z" transform="translate(-164.46 -270.53)"/>
        <path class="cls-4" d="M2944,1652.32a26,26,0,0,0-16.42,12.92,25.67,25.67,0,0,0,20.58,3.11,26,26,0,0,0,16.42-12.92A25.71,25.71,0,0,0,2944,1652.32Z" transform="translate(-164.46 -270.53)"/>
        <path class="cls-4" d="M2937.66,1675.63a25.36,25.36,0,0,0-20.4,3.64,27.06,27.06,0,0,0,17.12,12.49,25.36,25.36,0,0,0,20.4-3.65A27,27,0,0,0,2937.66,1675.63Z" transform="translate(-164.46 -270.53)"/>
        <path class="cls-4" d="M2920.75,1696.82a25.34,25.34,0,0,0-20.39,3.65,27,27,0,0,0,17.12,12.49,25.38,25.38,0,0,0,20.39-3.65A27,27,0,0,0,2920.75,1696.82Z" transform="translate(-164.46 -270.53)"/>
        <path class="cls-4" d="M2925.81,1661.59a27.51,27.51,0,0,0-6-18.89,24,24,0,0,0-7.94,17.18,27.48,27.48,0,0,0,6.05,18.9A24.11,24.11,0,0,0,2925.81,1661.59Z" transform="translate(-164.46 -270.53)"/>
        <path class="cls-4" d="M2908.18,1683.51a27.58,27.58,0,0,0-5.76-19c-4.56,3.76-7.7,9.84-8.19,17a27.56,27.56,0,0,0,5.76,19C2904.55,1696.79,2907.69,1690.72,2908.18,1683.51Z" transform="translate(-164.46 -270.53)"/>
        <path class="cls-4" d="M2893.61,1717.73a10.42,10.42,0,0,0-8.74-1.32,11.31,11.31,0,0,0,5,7.63,10.43,10.43,0,0,0,8.73,1.32A11.33,11.33,0,0,0,2893.61,1717.73Z" transform="translate(-164.46 -270.53)"/>
      </g>
      <g>
        <path class="cls-4" d="M2703.7,1812.81l-1.84-.13c2.64-48.53-15.17-94.19-30.58-124-16.72-32.3-34.3-53.37-34.48-53.58l1.35-1.38c.17.21,17.88,21.41,34.7,53.9C2688.4,1717.68,2706.37,1763.76,2703.7,1812.81Z" transform="translate(-164.46 -270.53)"/>
        <path class="cls-4" d="M2628.83,1632.37c4.19,7.06,10.21,11.44,16.31,12.64a35.4,35.4,0,0,0-4.65-22.67c-4.19-7.06-10.2-11.44-16.31-12.64A35.52,35.52,0,0,0,2628.83,1632.37Z" transform="translate(-164.46 -270.53)"/>
        <path class="cls-4" d="M2651.23,1640.82c-.29,8.53,2.25,16.45,6.52,22.06,4.63-4.71,7.72-12.06,8-20.58a34.77,34.77,0,0,0-6.52-22.06C2654.62,1625,2651.53,1632.3,2651.23,1640.82Z" transform="translate(-164.46 -270.53)"/>
        <path class="cls-4" d="M2669.12,1656a34.72,34.72,0,0,0-2.3,22.86c6-1.53,11.51-6.23,14.95-13.5a34.72,34.72,0,0,0,2.3-22.86C2678.11,1644,2672.56,1648.72,2669.12,1656Z" transform="translate(-164.46 -270.53)"/>
        <path class="cls-4" d="M2681.4,1693.27a14.47,14.47,0,0,0-1.61,9.5,9.79,9.79,0,0,0,6.65-5.14,14.53,14.53,0,0,0,1.61-9.5A9.79,9.79,0,0,0,2681.4,1693.27Z" transform="translate(-164.46 -270.53)"/>
        <path class="cls-4" d="M2686.7,1706.65a14.48,14.48,0,0,0-1.61,9.5,9.82,9.82,0,0,0,6.65-5.13,14.55,14.55,0,0,0,1.61-9.5A9.78,9.78,0,0,0,2686.7,1706.65Z" transform="translate(-164.46 -270.53)"/>
        <path class="cls-4" d="M2646.39,1663.24a19.21,19.21,0,0,0-15.31,8.17,20.5,20.5,0,0,0,16,7.71,19.21,19.21,0,0,0,15.31-8.17A20.5,20.5,0,0,0,2646.39,1663.24Z" transform="translate(-164.46 -270.53)"/>
        <path class="cls-4" d="M2656.55,1682.16a19.21,19.21,0,0,0-15.31,8.17,20.5,20.5,0,0,0,16,7.71,19.23,19.23,0,0,0,15.31-8.17A20.5,20.5,0,0,0,2656.55,1682.16Z" transform="translate(-164.46 -270.53)"/>
        <path class="cls-4" d="M2673.37,1707.94a12.52,12.52,0,0,0-10,5.32,13.34,13.34,0,0,0,10.41,5,12.53,12.53,0,0,0,10-5.32A13.35,13.35,0,0,0,2673.37,1707.94Z" transform="translate(-164.46 -270.53)"/>
      </g>
      <path class="cls-4" d="M2861.92,1892.38c0-8.08-48.79,1.46-52.85-9.55s41.79-11.64,41.79-26.53-23.37-4.45-37.07-4.45,27.05-6.37,27.05-11.64-14.3-2.51-14.3-8.11,75.08-9.81,66.29-23.51-49.14,4-60.23-3.09,59.21-14.82,61-25.36-51.79,9-59.37,1.45,84.64-34.82,80.78-54.84-69.9,25.64-86.41,20.73,83.24-75.2,60.06-102.58-67.44,90.63-82.54,86.42,18.91-74.58,3.48-86.82-59.71,99.07-62.51,121.92-8.41-49.16-32.65-57.59-.7,44.62-4.92,60.78-23.88-41.45-50.4-37.24,47.94,56.91,40.57,72.36-64.88-51.59-82.9-33.58,69.26,68,64.49,81.71-57.14-9.76-72.21,5.31,56.25,24.66,65.7,24.66,45.61,11.89,10.31,9.55S2861.92,1900.46,2861.92,1892.38Z" transform="translate(-164.46 -270.53)"/>
      <g>
        <path class="cls-5" d="M2722.85,1901.71s-58.75,3.15-75.85-7.62-3.6-19.15-3.6-19.15-54.33-1.18-54.19-14,13.3-12.13,13.3-12.13-27.42-18.64-22.31-30.25c7.86-17.85,52.53,13.23,52.53,13.23s-14.65-17.39-2.81-21.45C2662.39,1799.13,2722.85,1901.71,2722.85,1901.71Z" transform="translate(-164.46 -270.53)"/>
        <path class="cls-4" d="M2580.2,1818.51c-5.11,11.61,22.31,30.25,22.31,30.25s-19.79-.26-16.58,12.25,53,16.68,53,16.68-17.37,3.4-.27,14.17,84.23,9.85,84.23,9.85Z" transform="translate(-164.46 -270.53)"/>
      </g>
    </g>
    <g>
      <path class="cls-7" d="M327.74,1428.74c.09-2.93,4.13-5.2,6.27-2.6s2.05.84,4.13,6.44a181.61,181.61,0,0,0,25,45.2c19.58,26,39,39.17,61,52.18-9.06-20.43-15.14-42.24-15.91-64.24-.28-8-.13-16.33,3.3-23.69,1-2.06,4.64-1.63,5,.66,1.85,11.35-.87,19.91,2.8,40.23,8.77,48.48,43.47,99.9,77,135.91-6.42-61-9.53-130.24,1.95-191.73,1.88-10.09,4.88-19.68,7.66-29.53.66-2.32,4-1.32,3.54,1-.57,3.27-6,45.59-6.37,48.5-5.31,46.83-4.25,98.71-.12,146,26-35.17,43.35-76.3,51.48-119.25,2.4-12.69,3-25.8,6.41-38.26.46-1.72,3.3-1.9,3.65,0,3.46,18.67-3.47,51.69-8.52,69.63a286.38,286.38,0,0,1-49,98.08c-.87,1.13,35.94,285.65,34.95,289.26-1.67,6.07-12.26,10.34-13.9-.44-.67-4.39-20.89-177.4-30-257.53-3.45-1.9-5.66-5.28-14.54-15.25-20.53-23.08-40.83-51.8-54.4-78.88-8.14-.46-66.94-29.07-96.1-94.22-.84-1.87-4.63-10.69-5.17-12.66C327.29,1431.87,327.69,1430.41,327.74,1428.74Z" transform="translate(-164.46 -270.53)"/>
      <path class="cls-4" d="M516.58,1336.49q-1-13.14-1-26.82c0-101.63,43.13-184,96.34-184s96.34,82.38,96.34,184q0,13.66-1,26.82Z" transform="translate(-164.46 -270.53)"/>
      <path class="cls-5" d="M407.55,1291.27q-1-18.52-1-37.83c0-143.32,43.13-259.51,96.34-259.51s96.34,116.19,96.34,259.51q0,19.27-1,37.83Z" transform="translate(-164.46 -270.53)"/>
      <path class="cls-5" d="M442.82,1450.29c.67-8.76,1-17.72,1-26.83,0-101.62-43.13-184-96.34-184s-96.34,82.39-96.34,184c0,9.11.35,18.07,1,26.83Z" transform="translate(-164.46 -270.53)"/>
      <path class="cls-4" d="M597,1450.29q1.28-18.52,1.29-37.83c0-143.32-54.68-259.51-122.13-259.51S354,1269.14,354,1412.46q0,19.27,1.29,37.83Z" transform="translate(-164.46 -270.53)"/>
      <path class="cls-5" d="M503.23,1153c33.72,0,63.83,36.86,83.71,94.67a68.42,68.42,0,0,1,32-8.17c59.85,0,108.37,82.39,108.37,184,0,9.11-.39,18.07-1.14,26.83H396q-1.12-18.52-1.15-37.83C394.86,1269.14,443.38,1153,503.23,1153Z" transform="translate(-164.46 -270.53)"/>
    </g>
    <g>
      <path class="cls-7" d="M1593.58,1701.17c-4.76,1.12-9.16-.33-9.84-3.24l-101.92-434.77c-.68-2.9,2.63-6.16,7.38-7.28s9.17.34,9.85,3.24L1601,1693.9C1601.64,1696.8,1598.33,1700.05,1593.58,1701.17Z" transform="translate(-164.46 -270.53)"/>
      <path class="cls-8" d="M1566.87,1782.83c4.28-1,8.37-2.21,12.55-2.87a15.83,15.83,0,0,0,9.76-4.87,30.14,30.14,0,0,0,7.74-24.16c-.27-2.76-1.29-5.44-2-8.15l-13.83-54c-.37-1.41-.75-2.83-1.06-4.26a3.18,3.18,0,0,1,.18-1.68c.9,1.9,2.44,1.77,3.91,1.44,3.68-.82,7.35-1.69,11-2.66,1.21-.32,2.82-.71,2.36-2.59.16,0,.67.51.76,1q4.49,20.85,8.9,41.73c.86,4.06,1.76,8.11,2.62,12.18.9,4.23,1.35,8.61,2.73,12.68a29.59,29.59,0,0,0,18.13,18.89,15.11,15.11,0,0,0,11.21-.32c3.57-1.35,7.44-1.92,11.19-2.74.32-.08,1,.42,1.13.79a12.81,12.81,0,0,1,.69,2.46q6.56,27.91,13.1,55.83a34.5,34.5,0,0,1-.88,17.89c-2.9,9.83-8.24,18.33-14.5,26.31-2.63,3.35-5.41,6.62-8.36,9.7-5.19,5.43-11.51,6.94-18.58,4.36-10.72-3.91-20.89-8.93-29.89-16-5.81-4.59-10.77-9.92-13.7-16.86a25.73,25.73,0,0,1-1.42-4.15q-6.7-28.44-13.33-56.9C1567.06,1784.85,1567,1783.82,1566.87,1782.83Zm26.75-89.66a1.91,1.91,0,0,0-2.48-1.58,1.86,1.86,0,0,0-1.5,2.46,1.93,1.93,0,0,0,2.47,1.53A1.9,1.9,0,0,0,1593.62,1693.17Z" transform="translate(-164.46 -270.53)"/>
      <path class="cls-9" d="M1654.85,1765.71a12.81,12.81,0,0,0-.69-2.46c-.17-.37-.81-.86-1.13-.79-3.75.82-7.62,1.39-11.19,2.74a15.11,15.11,0,0,1-11.21.32,29.59,29.59,0,0,1-18.13-18.89c-1.38-4.07-1.83-8.45-2.73-12.68-.86-4.07-1.76-8.12-2.62-12.18q-4.45-20.87-8.9-41.73c-.09-.45-.6-1-.76-1,.46,1.88-1.15,2.27-2.36,2.59q-2.88.76-5.78,1.45l2,8.46a2,2,0,0,1,.92,3.94l43.39,185.1a17.43,17.43,0,0,0,8.57-5.18c3-3.08,5.73-6.35,8.36-9.7,6.26-8,11.6-16.48,14.5-26.31a34.5,34.5,0,0,0,.88-17.89Q1661.41,1793.63,1654.85,1765.71Z" transform="translate(-164.46 -270.53)"/>
    </g>
    <path class="cls-10" d="M1386.15,1859.82c-1.29-9.26-1.69-23.48-1.56-39.9l-28.81,6.47c3.37,23.24,2.4,34.87,2.4,34.87l-.81,7.34,0,21.7h70.94s-15-6.75-36.12-20.08C1390.62,1869.23,1387,1866.09,1386.15,1859.82Z" transform="translate(-164.46 -270.53)"/>
    <path class="cls-10" d="M1276.71,1852.57l9.42-27h-24.68c-1.29,17.34-1.77,29-1.77,29l-6.27,17.76-6.38,21.11s21,5.41,32-.68l-1.23-21Z" transform="translate(-164.46 -270.53)"/>
    <path class="cls-11" d="M1277.82,1871.7c-9.69,4.31-20.12,1.71-24.32.33l-1.39,3.76-5.34,17.81s21.26,6.57,32.28.49Z" transform="translate(-164.46 -270.53)"/>
    <path class="cls-11" d="M1356.62,1895.68h73.75c2.73-.24,3.39-2.47,2.45-3.85-2-2.82-10.56-4.9-20.23-9.41-17,1.79-52.55-9.92-55.23-13.86C1355.81,1876.44,1355.1,1895.35,1356.62,1895.68Z" transform="translate(-164.46 -270.53)"/>
    <path class="cls-3" d="M1358.19,1480.65l-39.09,239.56-42,139.28-18.38-2.21s-1.3-66.31,8.75-108.45a349.82,349.82,0,0,0,9-70.41c1.3-42.39,4.47-102.27,12.18-133.15,10.72-42.93,22.79-65.65,22.79-65.65Z" transform="translate(-164.46 -270.53)"/>
    <path class="cls-12" d="M1319.71,1534.7c-4.25,51.21,38.48,320.35,38.48,320.35h27.42s22.52-281.37,17.93-308.76-18.27-72-18.27-72l-61.47,4.8S1320.86,1520.8,1319.71,1534.7Z" transform="translate(-164.46 -270.53)"/>
    <path class="cls-10" d="M1347.94,1242.46c0,6.19-2.31,11.2-5.16,11.2s-5.17-5-5.17-11.2,2.32-11.2,5.17-11.2S1347.94,1236.27,1347.94,1242.46Z" transform="translate(-164.46 -270.53)"/>
    <path class="cls-13" d="M1354.45,1315.11c-42.38-17.1-63.85-11.44-71.2-7.71l.36,64.54c1.2,5.41-3.6,163.15-5.1,181.62,0,0,111.44,11.21,131.31-11.77,0,0-24.65-90.66-21.59-114C1393,1391.21,1358.09,1316.58,1354.45,1315.11Z" transform="translate(-164.46 -270.53)"/>
    <path class="cls-10" d="M1392.44,1360.5s18.51,22.11,21.12,24.23c0,0,52.42-25.2,74-38,.24-.19.49-.37.73-.57.4-.33,1-.56,1-1.21-.16-2.94.2-13,.53-17.34a8.07,8.07,0,0,1,1-3.38l3.7-6.65,1.21,5.15a3.12,3.12,0,0,0,3.61,2.33h0A14.59,14.59,0,0,0,1504,1323a17,17,0,0,1,6.6-2.06,4.23,4.23,0,0,1,4.67,3.28c.44,1.4.54,3,1.35,4.17,1.42,1.94,7.38,21.41,4.45,24.14-1.46,1.37-10.18,5.17-13.8,6.09a18.45,18.45,0,0,0-7,3.45,11.27,11.27,0,0,1-1.34.91h0c-15.07,10.64-65.1,47.28-65.1,47.28s-25,16.11-29.76,13.57-39.56-43.7-39.56-43.7Z" transform="translate(-164.46 -270.53)"/>
    <path class="cls-10" d="M1328.07,1267.13s1,23.81-1.15,32.84-5,9.71,13.37,12.45c7.21,1.08,14.16,2.69,14.16,2.69s-1.88-13.25-2.16-18.85c-.47-9.22,2.12-37.67,2.12-37.67Z" transform="translate(-164.46 -270.53)"/>
    <path class="cls-13" d="M1342.05,1279a33,33,0,0,0,10.56,3.75c.62-11.25,1.8-24.14,1.8-24.14l-25.13,8.15A33,33,0,0,0,1342.05,1279Z" transform="translate(-164.46 -270.53)"/>
    <path class="cls-14" d="M1331.05,1341.34c-.18,22.5,38.52,63.51,38.52,63.51s35-27.75,40-37.36c0,0-37.5-39.81-39.9-42.2-10.9-10.83-21.65-8.32-28.47-5.85C1335.72,1321.42,1331.05,1341.34,1331.05,1341.34Z" transform="translate(-164.46 -270.53)"/>
    <path class="cls-7" d="M1315.21,1350.52c21.21-18.51,29.21-59.32,15.37-83.64,9.61-12.5,15.77-10.27,13.63-25.83-4.23-30.68,38.48-49.16,6.58-57.32-32.24-6.47-59,13.34-73.79,33a78.22,78.22,0,0,1-24.74,21.91c-19.47,10.68-29.74,36.3-19.4,63-15.59,8.75-29.21,34-18.89,55,2.48,5,7.48,10.94,7.64,12.38-.3-1.78-14.53,45.06,38.61,61C1314.44,1446.38,1325.61,1394.33,1315.21,1350.52Z" transform="translate(-164.46 -270.53)"/>
    <path class="cls-7" d="M1299.7,1216c-6.28,25.89,27.7,44.69,54.6,45.38,17.49.44,25.52-1.35,28.35-19.78,4.58-29.88-7.73-48.1-25-55.64C1335.41,1176.19,1304.88,1194.61,1299.7,1216Z" transform="translate(-164.46 -270.53)"/>
    <path class="cls-10" d="M1339.21,1198.55a35.33,35.33,0,0,0-18.13,15.92c-6.3,11.94-3.17,50.19,23.06,62.8s38.29-16,36.38-37.16S1371,1191.32,1339.21,1198.55Z" transform="translate(-164.46 -270.53)"/>
    <path class="cls-15" d="M1355.6,1257.42l18.61-.29s-.32,7.21-8.5,7.57C1355.73,1265.15,1355.6,1257.42,1355.6,1257.42Z" transform="translate(-164.46 -270.53)"/>
    <path class="cls-7" d="M1311.76,1243.41c-3.88-19.76-2.36-34.74,11.68-42s26-14.4,38.61-1.41l2.84,1.6s-23.71,6.56-25,19.15-13.92,27.56-12,33.75,4.18,18.52,4.18,18.52l-5.2-4.27S1315.64,1263.17,1311.76,1243.41Z" transform="translate(-164.46 -270.53)"/>
    <path class="cls-10" d="M1336.2,1235.85c2,5.45.48,10.93-3.31,12.23s-8.44-2.06-10.4-7.52-.48-10.94,3.31-12.24S1334.24,1230.39,1336.2,1235.85Z" transform="translate(-164.46 -270.53)"/>
    <g>
      <path class="cls-7" d="M1773.06,1547s-21.07,46.63-43.79,70.56v7.15l34.11-49.76Z" transform="translate(-164.46 -270.53)"/>
      <path class="cls-7" d="M1795.35,1465.41c.17-23.85-5.21-32.82-5.29-31.42-.19,3.33.26,9.63.51,18,0,1-.22,53.3-15.9,91.25l-.25.59-.48,1.11c-.32.73-.63,1.44-.93,2.15-.69,1.53-1.24,2.78-1.68,3.84-17.2,39.13-22.86,44.38-42.06,66.59,0-61.3-4.21-130.53-22.1-190.47-2.93-9.83-6.92-19-10.72-28.56-.89-2.24-4.07-.9-3.42,1.35.92,3.2,25.12,89,24,203.32,0,1.43-5.71,287.86-4.34,291.34,2.3,5.86,13.27,9,13.77-1.9.2-4.44,2.12-178.61,2.77-259.26,3.15-2,46.6-66.42,56-101.86,7.68-29,10.09-50.64,10.2-66v0Z" transform="translate(-164.46 -270.53)"/>
      <path class="cls-4" d="M1688.78,1384.12a22.57,22.57,0,0,1,5.44,17.18,18.64,18.64,0,0,1-15.62-6.3,22.6,22.6,0,0,1-5.43-17.18A18.65,18.65,0,0,1,1688.78,1384.12Z" transform="translate(-164.46 -270.53)"/>
      <path class="cls-5" d="M1710.65,1383.19a30.33,30.33,0,0,1-16,18.18,25.07,25.07,0,0,1-3.6-22.32,30.33,30.33,0,0,1,16-18.18A25.07,25.07,0,0,1,1710.65,1383.19Z" transform="translate(-164.46 -270.53)"/>
      <path class="cls-4" d="M1786.57,1423.25a18.62,18.62,0,0,1,4.49,14.19,15.42,15.42,0,0,1-12.9-5.21,18.66,18.66,0,0,1-4.48-14.19A15.39,15.39,0,0,1,1786.57,1423.25Z" transform="translate(-164.46 -270.53)"/>
      <path class="cls-5" d="M1804.23,1422.48a25.09,25.09,0,0,1-13.21,15,20.72,20.72,0,0,1-3-18.44,25.07,25.07,0,0,1,13.2-15A20.69,20.69,0,0,1,1804.23,1422.48Z" transform="translate(-164.46 -270.53)"/>
      <path class="cls-4" d="M1768.6,1519.06a18.64,18.64,0,0,1,11.25,9.74,15.39,15.39,0,0,1-13.71,2.32,18.64,18.64,0,0,1-11.25-9.74A15.36,15.36,0,0,1,1768.6,1519.06Z" transform="translate(-164.46 -270.53)"/>
      <path class="cls-5" d="M1783.24,1509.17a25.07,25.07,0,0,1-3.39,19.7,20.71,20.71,0,0,1-12.19-14.15,25.12,25.12,0,0,1,3.39-19.71A20.71,20.71,0,0,1,1783.24,1509.17Z" transform="translate(-164.46 -270.53)"/>
      <path class="cls-4" d="M1705.88,1598.51a16.85,16.85,0,0,1,12.6,4.65,13.89,13.89,0,0,1-10.84,6.31,16.8,16.8,0,0,1-12.6-4.65A13.91,13.91,0,0,1,1705.88,1598.51Z" transform="translate(-164.46 -270.53)"/>
      <path class="cls-5" d="M1715.1,1585.51a22.6,22.6,0,0,1,3.4,17.71,18.62,18.62,0,0,1-14.78-8.08,22.6,22.6,0,0,1-3.41-17.71A18.66,18.66,0,0,1,1715.1,1585.51Z" transform="translate(-164.46 -270.53)"/>
      <path class="cls-4" d="M1697.12,1495.47a18.66,18.66,0,0,1,14.76,1.9,15.39,15.39,0,0,1-10.15,9.51A18.62,18.62,0,0,1,1687,1505,15.4,15.4,0,0,1,1697.12,1495.47Z" transform="translate(-164.46 -270.53)"/>
      <path class="cls-5" d="M1703.86,1479.13a25.1,25.1,0,0,1,8.06,18.3,20.7,20.7,0,0,1-18-5.07,25,25,0,0,1-8.06-18.29A20.69,20.69,0,0,1,1703.86,1479.13Z" transform="translate(-164.46 -270.53)"/>
      <path class="cls-4" d="M1802.09,1472.94a13.18,13.18,0,0,1-7.72,7.1,10.87,10.87,0,0,1-.54-9.79,13.18,13.18,0,0,1,7.73-7.11A10.86,10.86,0,0,1,1802.09,1472.94Z" transform="translate(-164.46 -270.53)"/>
      <path class="cls-5" d="M1807.85,1484a17.61,17.61,0,0,1-13.53-3.94,14.56,14.56,0,0,1,10.89-7.41,17.72,17.72,0,0,1,13.54,3.94A14.58,14.58,0,0,1,1807.85,1484Z" transform="translate(-164.46 -270.53)"/>
      <path class="cls-4" d="M1714.94,1428.09a13.17,13.17,0,0,1-5.06,9.2,10.85,10.85,0,0,1-3.62-9.11,13.13,13.13,0,0,1,5-9.2A10.86,10.86,0,0,1,1714.94,1428.09Z" transform="translate(-164.46 -270.53)"/>
      <path class="cls-5" d="M1723.92,1436.72a17.63,17.63,0,0,1-14.09.58,14.64,14.64,0,0,1,8-10.5,17.68,17.68,0,0,1,14.09-.57A14.57,14.57,0,0,1,1723.92,1436.72Z" transform="translate(-164.46 -270.53)"/>
      <path class="cls-4" d="M1773.7,1572.28a10.29,10.29,0,0,1-7.61,3.11,8.54,8.54,0,0,1,2.28-7.33A10.37,10.37,0,0,1,1776,1565,8.52,8.52,0,0,1,1773.7,1572.28Z" transform="translate(-164.46 -270.53)"/>
      <path class="cls-5" d="M1774.92,1582a13.82,13.82,0,0,1-8.86-6.58,11.38,11.38,0,0,1,10-2.47,13.82,13.82,0,0,1,8.86,6.58A11.44,11.44,0,0,1,1774.92,1582Z" transform="translate(-164.46 -270.53)"/>
      <path class="cls-4" d="M1731.21,1526.54a10.27,10.27,0,0,1-5.66,6,8.48,8.48,0,0,1-.92-7.61,10.26,10.26,0,0,1,5.66-6A8.5,8.5,0,0,1,1731.21,1526.54Z" transform="translate(-164.46 -270.53)"/>
      <path class="cls-5" d="M1736.29,1534.86a13.8,13.8,0,0,1-10.77-2.37,11.42,11.42,0,0,1,8.11-6.36,13.86,13.86,0,0,1,10.78,2.38A11.4,11.4,0,0,1,1736.29,1534.86Z" transform="translate(-164.46 -270.53)"/>
      <path class="cls-14" d="M1612.61,1868.28c7.76-5.33,11.41-12.76,20.8-13.23,6.09-.31,12.55-.34,17.71-3.59,7.07-4.44,15.78-7.69,22.24-13,5.29-4.32,12.42-5.47,19.18-6.46l33.16-4.85c4.06-.59,8.17-1.19,12.25-.69,14.93,1.81,24.74,17.26,39.18,21.49,6.82,2,14.39,1.39,20.72,4.6,8.19,4.15,12.19,13.58,14.18,22.55,1.23,5.49,12.29,8.66,14.8,19.56,1,2.14-7-1-9,.2s-4.46,1.37-6.81,1.49q-88.29,4.73-176.76,2c-7.11-.23-44.37,3.88-49-2.64C1579.73,1888.11,1606.78,1872.28,1612.61,1868.28Z" transform="translate(-164.46 -270.53)"/>
    </g>
    <g>
      <path class="cls-10" d="M2019.73,1492.75s-13.88-3.51-16.18-4.43-11.33-2.53-12.06-1.38,5.47,6.13,5.93,6.29,10.27,3.83,10.65,3.83S2019.73,1492.75,2019.73,1492.75Z" transform="translate(-164.46 -270.53)"/>
      <path class="cls-10" d="M2161.2,1385.26c-3.46,18.4-20.53,11.37-24.19,12l-34.11,72.3-78.76,23.12-19.35.21c1,.72-13.5-.1-19.15,3,.33.94,1.94,2.15,2.36,3.07,4.46,8.72,11,15.64,13.25,25.23a47.43,47.43,0,0,0,13.22-3.57c5.32-2.49,19.76-8.19,19.76-8.19s83.49-16.56,88.27-20.1C2126.69,1489.27,2172.5,1404.48,2161.2,1385.26Z" transform="translate(-164.46 -270.53)"/>
      <path class="cls-10" d="M2140.78,1853.57s1.37,22.79,1.38,22.84c.51,2.89,2.5,10,2.5,12.67,0,9.88-46.92-8.39-36.41-12.77.95-.39,5.94-3.39,6.25-6.76.49-5.18,1.71-15.66,1.71-15.66Z" transform="translate(-164.46 -270.53)"/>
      <path class="cls-13" d="M2108.37,1876.22s11,3,16.66,3.78,13.08-5.61,17.07-3.89c4.39,1.89,4.22,18.92,4.22,18.92s-59.08,4.85-75.69-.17C2064.05,1892.88,2085.85,1883.26,2108.37,1876.22Z" transform="translate(-164.46 -270.53)"/>
      <path class="cls-16" d="M2218.37,1492.26s5.18,34.61-1.3,49.8-55.59,164.15-56.24,176.3-17,146.4-17,146.4l-34.12-1-7.38-149.27,15.45-187.6,15-47.43Z" transform="translate(-164.46 -270.53)"/>
      <path class="cls-10" d="M2236.77,1853.57s1.38,22.79,1.38,22.84c.51,2.89,2.5,10,2.5,12.67,0,9.88-46.92-8.39-36.41-12.77,1-.39,7.42-5.63,7.73-9,.49-5.19.23-13.43.23-13.43Z" transform="translate(-164.46 -270.53)"/>
      <path class="cls-13" d="M2204.36,1876.22s11,3,16.66,3.78,13.08-5.61,17.07-3.89c4.4,1.89,4.57,18.92,4.57,18.92s-59.35,5.65-76-.17C2160.14,1892.6,2181.84,1883.26,2204.36,1876.22Z" transform="translate(-164.46 -270.53)"/>
      <path class="cls-7" d="M2226.14,1494.08s8,38.44,4.72,67.59-3.5,132.71-3.5,132.71l12.37,165.69-29.35.64s-49.16-172-48.51-167.73-11.67-116.61-11.67-116.61l55.85-85.94Z" transform="translate(-164.46 -270.53)"/>
      <path class="cls-11" d="M2107.21,1456.73l40,14.92s10.68-33.2,14.87-49.28c5.09-19.5,10-45,7.49-45.13-7-.2-16.86,1.12-24.06,7C2120.61,1404.67,2107.21,1456.73,2107.21,1456.73Z" transform="translate(-164.46 -270.53)"/>
      <path class="cls-17" d="M2137.26,1418.6c-1.21,6.09-31,159.81-31,159.81,75.31,41.3,130.75,21.64,130.75,21.64s-2.86-113.82,1-129.6c2.55-10.45,11.82-79.25,5.08-81.56-8.64-3-21.71-7.35-32.61-9.06-9.31-1.45-45.64-3.89-52.26-2C2158.24,1377.79,2142.33,1393,2137.26,1418.6Z" transform="translate(-164.46 -270.53)"/>
      <path class="cls-7" d="M2197.89,1252.36s-27.91-12.23-35.36,12c0,0-24.31-.65-18.29,24,0,0-23.37,14-5.68,44.32,0,0-4.55,30.09,30.2,29.39,0,0,5.95,10.1,21.56,6.49s19.33-8.07,19.33-8.07,28.62,6.11,35.22-19.8c0,0,18.9-6,4.15-29.76,0,0,14.43-33.28-15.87-40.71C2233.15,1270.25,2227.28,1237.76,2197.89,1252.36Z" transform="translate(-164.46 -270.53)"/>
      <path class="cls-10" d="M2218.88,1325.59c-1.74,6.25.29,12.27,4.51,13.44s9.06-3,10.79-9.2-.29-12.27-4.52-13.44S2220.61,1319.34,2218.88,1325.59Z" transform="translate(-164.46 -270.53)"/>
      <path class="cls-10" d="M2145.33,1316c.17,6.48,3.86,11.64,8.25,11.53s7.79-5.47,7.62-12-3.87-11.64-8.25-11.53S2145.15,1309.52,2145.33,1316Z" transform="translate(-164.46 -270.53)"/>
      <path class="cls-10" d="M2177.16,1355.73c0,.45-2.55,17-3.92,25.79a6.93,6.93,0,0,0,4.46,7.58c8.29,3.07,24.44,7,34.61-3.68a4.54,4.54,0,0,0,1.22-3.65l-4.21-38.78Z" transform="translate(-164.46 -270.53)"/>
      <path class="cls-18" d="M2175.8,1365c8.81,3.65,19.49,2.94,30.95-5a48.89,48.89,0,0,0,4.08-3.15l-1.51-13.9-32.16,12.74C2177.18,1356,2176.58,1359.94,2175.8,1365Z" transform="translate(-164.46 -270.53)"/>
      <path class="cls-10" d="M2194.58,1272.31a38.55,38.55,0,0,1,22.21,14.8c8.72,12.3,15.77,49.18-10.78,67.5s-48.6-5.38-49.84-29.25S2163.26,1270.23,2194.58,1272.31Z" transform="translate(-164.46 -270.53)"/>
      <path class="cls-15" d="M2169.13,1336.06l27.63.2s-.71,10.48-12.87,10.75C2169.08,1347.33,2169.13,1336.06,2169.13,1336.06Z" transform="translate(-164.46 -270.53)"/>
      <path class="cls-7" d="M2167.57,1277.49s14.67-1.38,23.24,3.22,28.75,37.93,34.47,36.17,8.12-22.74,5.88-26.87-12.27-17.94-13.36-18.58-13.41-5.55-15.73-5.89-20.47.52-20.47.52Z" transform="translate(-164.46 -270.53)"/>
      <path class="cls-10" d="M2156.25,1559.22c-2.58-1.57,6.65-12.12,5.4-14.81s-15.46,8.68-17.57,7.15c-3.88-2.84,14.79-13.42,13.08-14.84s-21.49,8.55-22.06,4.18,21.6-8.19,20.45-10.53-20.29,5.41-23.55.89c-1.74-2.41,34.4-9.08,36.25-12.7s-13-9.49-12-13,26,12.8,28.2,12.29,48.67-14.42,63.12-21.18c-1.83-5.19-8.16-36.26-10-41.1,10.62-.73,17-12.51,27.48-13.85,5.3,16.68,21.67,66,19.47,70.49-6.68,13.53-78.63,24-91.63,24.85s-16.15,6.67-23.22,9.38S2158.82,1560.79,2156.25,1559.22Z" transform="translate(-164.46 -270.53)"/>
      <path class="cls-11" d="M2278.91,1471.4l-48.61,23.5s-7.63-35.7-13.33-57.77c-4.9-19,19.32-52.73,27.39-48.11C2262.41,1399.36,2278.91,1471.4,2278.91,1471.4Z" transform="translate(-164.46 -270.53)"/>
      <g>
        <path class="cls-3" d="M1994.77,1566.51l-6.52-8.2,2.15-1.22a33.87,33.87,0,0,0,16.21-20.84,33.49,33.49,0,0,0-3.61-25.88,35,35,0,0,0-2.78-4.07,33.93,33.93,0,0,0-51.31-1.51l-1.67,1.88-6.5-8.19,1.29-1.33a43,43,0,0,1,33.44-13.65,44.12,44.12,0,0,1,27.88,77,46.74,46.74,0,0,1-7,5.1Z" transform="translate(-164.46 -270.53)"/>
        <path class="cls-13" d="M2001,1569.91h0l-57.25-72.1a2,2,0,0,1-.25-.3l-.4-.51-2.49-3.13-1.39-1.76h0c-.46-.6-.92-1.2-1.37-1.81-.87-1.19-1.52-1.46-2.89-.62-5.94,3.62-12,7.11-18,10.68a13.9,13.9,0,0,1-4,1.6c-8.76,2-17.5,4.11-26.26,6.12-1.34.3-1.65.67-1,2,.84,1.65,1.31,3.49,2.14,5.14s.37,2.3-1.1,3c-2.19,1.12-2.1,1.21-1.14,3.5,3.34,7.9,6.64,15.82,10,23.72q6.38,15.16,12.77,30.32c1.27,3,2.5,6,3.88,9.4l-4-1.51q-32-11.94-63.92-23.88a5.48,5.48,0,0,1-2.86-2.29c-2.68-4.12-5.45-8.19-8.2-12.27-1-1.51-2.08-3-3.32-4.74-4.32,11.53-8.52,22.75-12.85,34.33,7-1.84,13.5-3.54,20-5.31a3.67,3.67,0,0,1,2.59.16q39.68,17.08,79.38,34.12a3.32,3.32,0,0,1,1.88,2c1.94,4.71,4,9.38,5.89,14.1.43,1.07.84,1.06,1.69.55,2.46-1.5,4.95-3,7.43-4.42q33.8-20,67.6-40c1.14-.67,1.58-1,.49-2.32S2002.06,1571.2,2001,1569.91Z" transform="translate(-164.46 -270.53)"/>
        <polygon class="cls-14" points="1719.97 1237.15 1723.24 1247.18 1754.16 1228.88 1719.97 1237.15"/>
        <path class="cls-3" d="M1842.24,1558.39a6.4,6.4,0,0,1-.7-.89c-2.68-4.12-5.45-8.19-8.2-12.27-1-1.51-2.08-3-3.32-4.74-4.32,11.53-8.52,22.75-12.85,34.33,7-1.84,13.5-3.54,20-5.31l5-11.12Z" transform="translate(-164.46 -270.53)"/>
        <path class="cls-19" d="M2004.15,1573.72c-1.06-1.24-2.09-2.52-3.11-3.81h0l-57.25-72.1a2,2,0,0,1-.25-.3l-.4-.51-2.49-3.13-1.39-1.76h0c-.46-.6-.92-1.2-1.37-1.81-.87-1.19-1.52-1.46-2.89-.62-3.49,2.12-7,4.21-10.53,6.29,12.6,23.52,37.37,81.35-.42,117q1.47,3.48,2.9,7c.43,1.07.84,1.06,1.69.55,2.46-1.5,4.95-3,7.43-4.42q33.8-20,67.6-40C2004.8,1575.37,2005.24,1575,2004.15,1573.72Z" transform="translate(-164.46 -270.53)"/>
      </g>
      <path class="cls-20" d="M2010.17,1512.15a5.46,5.46,0,0,1-1.16,7.19c-4,3.3-11.4,8-16.26,3.47-7-6.48-10.16-27.11-6.51-27.24s22.29,7.31,21.93,11.19C2008,1509,2009.08,1510.45,2010.17,1512.15Z" transform="translate(-164.46 -270.53)"/>
    </g>
    <g>
      <g>
        <path class="cls-21" d="M3091.86,1687.14c13.79-35.88,27.3-71.77,37.1-109.1,30.17-114.86,22.89-198.58,21.76-238.84-.15-5.31,8.39-6.77,9.13-1.28,2.57,18.89,3.14,38.08,3.26,57.15a721.74,721.74,0,0,1-5.87,96.63c22.13,5.76,43.06-2.87,60.19-18.37,29.52-26.73,40.06-62.35,44.7-101.81.47-4,.62-7.84,3.91-10.17.72-2.07,3.75-2.71,4.5.38,4.67,4.81,2.41,14.46,1.69,20.67-9.74,84-60.83,124.78-102,124.42a59.07,59.07,0,0,1-14.89-1.62q-4.46,30.15-11.44,59.81c-8.89,37.64-21.36,74-35.07,109.94-46.9,123-61.87,185.88-75.19,221.49-2,7.16-12.61,4.16-10.75-3.08C3023.59,1890.77,3060.18,1769.56,3091.86,1687.14Z" transform="translate(-164.46 -270.53)"/>
        <path class="cls-21" d="M2903.94,1363.68c.44-2.64,2-4.4,2.57-6.88.78-3.27,6.12-3.59,6.68,0,.32,2.06,1.46,3.33,1.9,5.43,1.43,6.81-2,45.08,7,103.67,2.4,15.57,5,31.06,10.23,45.92,8.39,24,23.66,49.92,42.65,66.29a1004.12,1004.12,0,0,1,6.78-102.68q3.69-30.62,9.34-60.89,2.76-14.74,6-29.4c2.24-10.24,4.35-20.08,9.26-29.35,1.51-2.85,5.79-1.53,5.8,1.63,0,9.1-1.8,17.48-3.7,26.32s-3.66,17.63-5.31,26.48c-12.2,65.6-16.79,123.86-16.74,189.54,20.12-25.31,37.71-55.62,50.75-85.39A393.54,393.54,0,0,0,3067.73,1401q1.84-16.41,2.21-32.93.18-8.55.35-17.1c.06-2.93,1.19-11.77,6.13-9.18,4.54,2.38,4.11,7.7,4.49,12.35.41,5.06.45,10.11.38,15.19q-.18,14.6-1.54,29.14c-6.53,70.18-33,139.56-73.28,196.4-6.14,8.67-12.48,18-19.93,25.52,1.71,112.33,18.76,262.1,19.05,273.44.07,2.51,0,1.86-.93,2.79-3.64,3.65-7.92,4.85-9.29.93-2.58-7.4-2.16-14.34-6-55.32-6.88-73.07-14.59-240.48-14.56-247.27-23.91-17.18-40.84-43.6-51.9-71.2-5.87-14.64-9.31-29.71-11.9-45.31C2902.21,1425.39,2902.48,1372.36,2903.94,1363.68Z" transform="translate(-164.46 -270.53)"/>
      </g>
      <path class="cls-22" d="M3068.29,1272a221.88,221.88,0,0,1-1.38-24.8c0-93.94,58.37-170.09,130.38-170.09s130.39,76.15,130.39,170.09a221.88,221.88,0,0,1-1.38,24.8Z" transform="translate(-164.46 -270.53)"/>
      <path class="cls-5" d="M2920.72,1230.21q-1.35-17.13-1.38-35c0-132.48,58.38-239.88,130.39-239.88s130.39,107.4,130.39,239.88q0,17.82-1.38,35Z" transform="translate(-164.46 -270.53)"/>
      <path class="cls-22" d="M3177.14,1377.2a349,349,0,0,0,1.74-35c0-132.48-74-239.88-165.29-239.88s-165.29,107.4-165.29,239.88a349,349,0,0,0,1.75,35Z" transform="translate(-164.46 -270.53)"/>
      <path class="cls-5" d="M3050.22,1102.35c45.63,0,86.39,34.07,113.29,87.51a128,128,0,0,1,43.34-7.55c81,0,146.66,76.15,146.66,170.09a198.47,198.47,0,0,1-1.55,24.8H2905.11q-1.53-17.13-1.55-35C2903.56,1209.75,2969.22,1102.35,3050.22,1102.35Z" transform="translate(-164.46 -270.53)"/>
    </g>
    <rect class="cls-16" y="1622.88" width="3141.17" height="8.16"/>
  </g>
</svg>
