<svg id="Layer_1" data-name="Layer 1" xmlns="http://www.w3.org/2000/svg" width="21.78" height="23.91" viewBox="0 0 21.78 23.91">
  <defs>
    <style>
      .cls-1 {
        fill: #64b900;
      }
    </style>
  </defs>
  <path class="cls-1" d="M67.9,60.53l-.15.27a9.43,9.43,0,0,0-.49.94c-.15.3-.3.59-.41.87l-.32.79c-.09.25-.16.48-.23.69a8.72,8.72,0,0,0-.27,1l-.09.35,1.22.22s0-.11.07-.32a7.09,7.09,0,0,1,.21-.9l.19-.65c.08-.23.17-.48.27-.74s.22-.54.34-.84.27-.6.44-.91.32-.64.52-1,.38-.67.6-1,.44-.69.69-1,.49-.72.76-1.08a49.72,49.72,0,0,1,3.6-4.3,82,82,0,0,1,7.72-7.19c2.22-1.84,3.79-3,3.79-3s-1.53,1.17-3.7,3.07a83.6,83.6,0,0,0-7.5,7.43,48.69,48.69,0,0,0-3.46,4.41c-.26.36-.5.73-.73,1.09s-.45.72-.65,1.07-.4.7-.58,1-.29.55-.41.82C81.26,66.32,83.18,54.23,85.48,47a25.38,25.38,0,0,1,2.24-5.24S60,44.52,67.9,60.53Z" transform="translate(-65.94 -41.75)"/>
</svg>
