<svg id="Layer_1" data-name="Layer 1" xmlns="http://www.w3.org/2000/svg" width="356.48" height="254" viewBox="0 0 356.48 254">
  <defs>
    <style>
      .cls-1 {
        fill: #64b900;
      }
    </style>
  </defs>
  <path d="M221,405a78.41,78.41,0,0,0,.38,8.63c.1,1.09.22,2.39.35,4.13.62,4.18,3.09,18,8.9,18,4.23,0,5-3.85,5.72-9.3.45-3.56.87-6.91,3.55-6.91a2.37,2.37,0,0,1,2.57,2.68c0,7.06-2.5,19-11.84,19-13.64,0-15.12-25.33-15.12-36.22V403c0-5.53,0-17,2.1-26.93,2.63-12.41,7.76-18.71,15.22-18.71,7.84,0,11.34,6.74,11.34,13.42,0,1.88-1,3.05-2.56,3.05-2.14,0-2.57-2.28-3-4.48-.61-3.19-1.23-6.5-5.79-6.5S221,368.35,221,405Z" transform="translate(-215.46 -355.73)"/>
  <path d="M278.88,437.8c-.05-.35-.11-1.08-.16-1.79a17.34,17.34,0,0,0-.21-2.16c-3.64-32.33-6.37-52.66-8.6-64-2.3-11.63-4.11-14-6.27-14-3.56,0-4.62,5.9-5.19,9.07-.06.36-.12.67-.17.94-.95,5.26-2.39,15.93-5.74,55.24v17.68c0,1.42,1.58,2.32,2.68,2.32.9,0,2.56-1.19,2.56-2.32V427.55c.28-.6,4-1.49,13.05-1.49h1.38l1.43,14c.18,1.38,1.7,1.87,2.68,1.87,2.56,0,2.56-3,2.56-4v-.09Zm-7.56-17.32c-.75.1-2.53.17-4,.23-2.12.09-4.31.18-5.37.36l-.44.07c-1.69.27-3,.5-3.73.68,0-.06.06-.29.11-.49v-.1c2.88-32,5-48.39,5.9-54.23l7.52,52.15Z" transform="translate(-215.46 -355.73)"/>
  <path d="M314.62,429.76c-1.44-11-4.51-24.4-15.46-31.87,1.35-.84,4.55-3,5.23-3.56,7.23-5.95,10.6-12.15,10.6-19.49,0-7.74-4-16.95-12.67-18.9h-6.4c-.08,0-7.89.71-7.89,3.92l2,78.09c.08,1,.27,3.49,2.93,3.49a2.49,2.49,0,0,0,2.56-2.69v-.86l-1.06-36.26c12.82,7.41,14.28,22.69,15.58,36.22l.25,2.15,0,.07a2.35,2.35,0,0,0,2.52,1.49,2.55,2.55,0,0,0,2.69-2.81v-.88ZM298,361.52l.94,0h2.61c5.41,1.26,7.88,7.64,7.88,13,0,9.3-8,16.84-15.26,20.71L293.77,362a7.81,7.81,0,0,1,3.2-.52Z" transform="translate(-215.46 -355.73)"/>
  <path d="M342.89,404.45a7.19,7.19,0,0,0-2.75-1c-.47-.1-.92-.19-1.36-.33,1.46-1.53,4.22-4.9,5.22-6.24,6.84-8.49,6.74-20.05,5.62-31.29v-.07l0-.07c-2.86-8.65-10-9.76-16-9.76a83.36,83.36,0,0,0-8.45.57,2.59,2.59,0,0,0-1.86.87,3.48,3.48,0,0,0-.65,2.57c1.12,28.18,2.59,64.85,3.24,79.51,0,1,.06,1.16.06,1.32v.07c.27,2.45,2.89,2.45,3.75,2.45.52,0,1,0,1.5-.07h.53a19,19,0,0,0,13.3-6.7c3.72-4.54,5.44-11.19,4.69-18.24C349.33,413.72,347.8,407.82,342.89,404.45Zm-11.72,33.61-1.41-29.93h.16c1.22-.11,2.3-.17,3.3-.17,7.17,0,10.27,2.91,11,10.35.52,5.64-1,11.2-4,14.86A13.56,13.56,0,0,1,331.17,438.06Zm-1.72-76.37,1-.15h.06a38.82,38.82,0,0,1,4-.23c4.56,0,9.3,1.06,10,9,1.21,12.15-2.53,22.57-10.55,29.39a11.19,11.19,0,0,1-4.47,2.87l-1.06-40.68Z" transform="translate(-215.46 -355.73)"/>
  <path d="M379.66,356.91c-.24,0-.48,0-.72,0-7.58,0-12.79,6.57-15.48,19.54-2.14,10.28-2.13,21.87-2.13,27.43v1.45c0,6,0,15.11,1.74,22.81,2.15,9.48,6.45,14.28,12.78,14.28,10.12,0,13.08-13.09,14.5-19.39a162.57,162.57,0,0,0,3.3-33.42C393.65,378.44,393.65,357.69,379.66,356.91Zm8.5,31.71c0,11.33-.12,15.73-2.9,32.5a19.48,19.48,0,0,0-.88,3.09c-1.14,4.75-3.05,12.7-8.53,12.7-5.23,0-6.65-7.15-7.5-11.43-.21-1.05-.37-1.88-.56-2.47l-1-9.45c-.08-.76-.12-3.85-.12-8.48,0-11.11.92-37.49,9.44-42.28a5.35,5.35,0,0,1,2.75-.65c3.87,0,6.58,3.6,8.05,10.73A76.42,76.42,0,0,1,388.16,388Z" transform="translate(-215.46 -355.73)"/>
  <path d="M430,361.54v14.88c0,3,0,6.12-.24,8.95v51.3c0,1.91-.77,4.15-2.93,4.15a2.57,2.57,0,0,1-2.43-2.21L409.72,379.9c0,8.18.26,17,.52,25.56s.49,16.48.49,23.77c0,.82,0,1.72.08,2.68.15,3.29.3,6.69-1.11,8.17a2.36,2.36,0,0,1-1.78.74h-.24a1.83,1.83,0,0,1-2-1.52l0-.08v-.1c-.07-3.69-.15-7.87-.23-12.26-.37-19.67-.83-44.15-.63-47.67.11-2.05.18-4.18.24-6.25.29-9.26.55-14.09,2.85-14.09H408a3,3,0,0,1,2.49,2L424.2,417l.68-56c0-.62.94-1.52,1.24-1.72l.16-.1h.18C427.61,359.1,430,359.1,430,361.54Z" transform="translate(-215.46 -355.73)"/>
  <path d="M255.78,475.76,229.93,600c3.21-.09,6.44-.45,9.56-.81,3.52-.39,7.14-.8,10.79-.85,2.84,0,4.62,1.63,4.66,4.33,0,1.54-.71,4.18-5.86,4.68-3.44.46-19.31,1.88-22.59,2.11a4.6,4.6,0,0,0-.48.07c-.5.06-1.14.15-1.58.16-3.21,0-5.22-1.84-5.26-4.93v-.71l26.89-126.18v-.28l-24.79.34c-1,0-2.51-2.3-2.53-2.33l-.07-.12,0-.12a8.66,8.66,0,0,1-.24-1.39c-.07-5.2,5.56-5.28,8.93-5.32l19.51-.27c3.4.34,9.1.89,9.18,6.28A3.42,3.42,0,0,1,255.78,475.76Z" transform="translate(-215.46 -355.73)"/>
  <path d="M309.29,598.58c0,2.66-1.36,4.55-3.57,4.84l-19,4.86h-.12c-10.25.14-10.48-5.71-10.77-13.12v-.31c0-3-.2-10.9-.37-18.68-.14-7.5-.29-14.88-.32-17.54-.29-20.78-.13-35.15,0-47.84.12-11,.24-21.46.06-34.56,0-3,1.47-5.34,3.85-6l.08,0h.08l4.11-.5a166.78,166.78,0,0,1,18.37-1.6c2.88,0,6.21.41,6.26,4.31,0,1.76-1.12,4.22-3.34,4.25l-20.15,1.85-.25.11c-.05,4.64-.39,31.58-.59,43.36,0,.76.09,3,.17,5.24.05,1.59.11,3.18.15,4.25,2.42-.52,10.47-2.07,12.27-2.29H297c2.9,0,6.2-.09,6.25,3.91.06,4.56-7.58,5.54-13.72,6.32a28.3,28.3,0,0,0-5.58,1l.73,54.33.4,4.58c1-.14,4.84-1.22,8-2.1,6.37-1.78,10.64-3,12-3C307.62,594.2,309.25,595.87,309.29,598.58Z" transform="translate(-215.46 -355.73)"/>
  <path d="M367.92,586.66c-2.6-17.94-7.93-39.91-26.05-51.91,2.2-1.42,7.4-5,8.51-6,11.71-9.91,17.1-20.15,16.93-32.2-.17-12.68-6.88-27.69-21.2-30.69l-.11,0-10.37.14c-.13,0-12.92,1.33-12.85,6.59l4.94,128c.15,1.71.52,5.71,4.88,5.65a4.07,4.07,0,0,0,4.14-4.45l0-1.42L334.16,541c21.19,11.86,23.93,36.88,26.35,59l.47,3.52,0,.12A3.88,3.88,0,0,0,365.2,606c2.71,0,4.37-1.82,4.33-4.66l0-1.45ZM339.08,475.14c.53,0,1,0,1.54,0l4.29-.06c8.9,1.94,13.08,12.35,13.2,21.23.2,15.24-12.79,27.78-24.56,34.29l-1.32-54.54a12.82,12.82,0,0,1,5.24-.93Z" transform="translate(-215.46 -355.73)"/>
  <path d="M407.76,466.64c-.4,0-.79,0-1.17,0-12.44.17-20.83,11.06-25,32.39-3.27,16.89-3,35.89-2.87,45l0,2.37c.12,9.87.31,24.78,3.36,37.37C385.89,599.27,393,607,403.41,606.9c16.6-.22,21.15-21.75,23.35-32.11a266,266,0,0,0,4.67-54.86C431.19,501.64,430.73,467.62,407.76,466.64Zm14.65,51.81c.26,18.58.13,25.8-4,53.35a31.22,31.22,0,0,0-1.38,5.09c-1.77,7.81-4.71,20.89-13.71,21-8.57.12-11.06-11.58-12.54-18.57-.37-1.71-.67-3.08-1-4L388,559.82c-.14-1.24-.27-6.31-.38-13.9-.24-18.23.68-61.49,14.54-69.53a8.8,8.8,0,0,1,4.51-1.13c6.33-.09,10.85,5.76,13.43,17.4,2.13,9.61,2.28,20.18,2.34,24.69Z" transform="translate(-215.46 -355.73)"/>
  <path class="cls-1" d="M488.94,568.3l-.08,2.33a73.65,73.65,0,0,0-.07,8c0,2.53,0,5,.23,7.25l.56,6.41c.26,2,.58,3.78.83,5.43a64.42,64.42,0,0,0,1.61,7.64l.6,2.66,8.95-2.7a8.56,8.56,0,0,1-.63-2.39,54.38,54.38,0,0,1-1.67-6.77l-1-5c-.25-1.82-.5-3.81-.72-5.9s-.38-4.39-.6-6.81a63.68,63.68,0,0,1-.16-7.63c.07-2.66-.05-5.4.06-8.5s.25-5.81.6-8.78.59-6.15,1.21-9.09.82-6.52,1.4-9.86a375.41,375.41,0,0,1,9.44-41.25,619.31,619.31,0,0,1,27.2-74.8c8.61-20,15.18-33.16,15.18-33.16s-6.27,13.11-14.33,33.32a630.4,630.4,0,0,0-24.91,75.66,368.43,368.43,0,0,0-8.12,41.51c-.51,3.31-.85,6.62-1.16,9.83s-.56,6.38-.7,9.42-.29,6.07-.47,8.71a52.39,52.39,0,0,0,.06,6.91c96.29-9.34,67.72-97.17,58.37-153.65a190.89,190.89,0,0,1-2.93-42.89S380.93,487.83,488.94,568.3Z" transform="translate(-215.46 -355.73)"/>
</svg>
